<svg id="Layer_1" data-name="Layer 1" xmlns="http://www.w3.org/2000/svg" viewBox="0 0 589 274"><defs><style>.cls-1,.cls-2{fill:#ffca06;}.cls-2{stroke:#ffca06;}</style></defs><title>404</title><path class="cls-1" d="M375.79,102.49c-.25,34.2-21.83,66.14-54.41,77.62a83.66,83.66,0,0,1-92.13-25.54C207.31,128.22,205,89.3,222.5,60.1c17.57-29.35,52.92-45.45,86.61-38.62a83.43,83.43,0,0,1,66.68,81c.1,12.86,20.1,12.89,20,0A103.81,103.81,0,0,0,328,6C288.15-8.64,241,4.3,214.28,37.28c-26.93,33.27-31.2,80.68-9,117.69,22.26,37.2,66.14,56.21,108.52,47.95,47.43-9.25,81.68-52.59,82-100.43C395.89,89.62,375.89,89.6,375.79,102.49Z"/><path class="cls-1" d="M349.58,189.59l69,69,9.78,9.78c6.48,6.48,18.36,7,24.75,0s6.92-17.83,0-24.75l-69-69-9.78-9.79c-6.48-6.48-18.36-7-24.75,0s-6.92,17.83,0,24.75Z"/><path class="cls-2" d="M280.39,103.79l.72-.73q13.83-.57,20.23-4.73T307.75,87v-.28a12.38,12.38,0,0,0-4.39-9.82q-4.39-3.8-12.17-3.8a27,27,0,0,0-12.6,3,41.28,41.28,0,0,0-10.87,8.43L256.92,73a51.29,51.29,0,0,1,14.69-11.7q8.34-4.43,20-4.43a44.47,44.47,0,0,1,13.84,2,30.58,30.58,0,0,1,10.64,5.83A26.5,26.5,0,0,1,323,73.9a28.89,28.89,0,0,1,2.47,12.17v.29a28,28,0,0,1-2.32,11.81,25.38,25.38,0,0,1-6.24,8.5,32.39,32.39,0,0,1-9.2,5.61,52.48,52.48,0,0,1-11.33,3.17l-1.44,11.66H283.27Zm-1.15,35.42h19.29v19.73H279.24Z"/><path d="M110.76,157.34H6.33L.67,141.21,112.74,4.8h19.52V138.66h30.85v18.68H132.26v47h-21.5Zm0-18.68V36.5L27.55,138.66Z"/><path d="M535.76,157.34H431.33l-5.66-16.13L537.74,4.8h19.52V138.66h30.85v18.68H557.26v47h-21.5Zm0-18.68V36.5L452.55,138.66Z"/></svg>