<?xml version="1.0" encoding="utf-8"?>
<!-- Generator: Adobe Illustrator 22.0.1, SVG Export Plug-In . SVG Version: 6.00 Build 0)  -->
<svg version="1.1" id="Layer_1" xmlns="http://www.w3.org/2000/svg" xmlns:xlink="http://www.w3.org/1999/xlink" x="0px" y="0px"
	 viewBox="0 0 16 22" enable-background="new 0 0 16 22" xml:space="preserve">
<path fill="#FFC904" d="M14.613,11H14.5V6.5C14.5,2.91,11.59,0,8,0S1.5,2.91,1.5,6.5V11H1.387C0.621,11,0,11.621,0,12.387v8.225
	C0,21.379,0.621,22,1.387,22h13.225C15.379,22,16,21.379,16,20.613v-8.225C16,11.621,15.379,11,14.613,11z M4.125,6.5
	c0-2.137,1.738-3.875,3.875-3.875s3.875,1.738,3.875,3.875V11h-7.75V6.5z M6.773,19l0.491-2.16
	c-0.332-0.232-0.549-0.618-0.549-1.054C6.714,15.076,7.29,14.5,8,14.5s1.286,0.576,1.286,1.286c0,0.436-0.217,0.821-0.549,1.054
	L9.227,19H6.773z"/>
</svg>
