<svg id="Layer_1" data-name="Layer 1" xmlns="http://www.w3.org/2000/svg" viewBox="0 0 432 209.85"><defs><style>.cls-1{fill:#ffc907;}.cls-2{fill:#fff;}.cls-3{fill:none;}</style></defs><title>Grad Fair Logo 2017 - Date</title><path class="cls-1" d="M232.22,31.09c-8.42,0-16.22-7.81-16.22-16.23,0,8.42-7.81,16.23-16.22,16.23,8.41,0,16.22,7.81,16.22,16.21,0-8.4,7.8-16.21,16.22-16.21"/><polygon class="cls-2" points="180.8 32.61 21.32 32.61 15.76 31.08 21.32 29.55 180.8 29.55 186.36 31.08 180.8 32.61"/><polygon class="cls-2" points="410.68 32.61 251.2 32.61 245.64 31.08 251.2 29.55 410.68 29.55 416.24 31.08 410.68 32.61"/><polygon class="cls-3" points="130.33 143.54 143.33 143.54 137.14 73.07 130.33 143.54"/><polygon class="cls-3" points="299.4 143.54 312.4 143.54 306.21 73.07 299.4 143.54"/><path class="cls-3" d="M204.28,68.43a7.1,7.1,0,0,0-1.68-4.71,6.77,6.77,0,0,0-.51-.56A7.18,7.18,0,0,0,196.82,61h-6.46V184.64h6.46a7.17,7.17,0,0,0,5.27-2.18c.18-.18.35-.37.51-.56a7.14,7.14,0,0,0,1.68-4.72Z"/><path class="cls-3" d="M401.71,110V68.43A7.1,7.1,0,0,0,400,63.72a6.77,6.77,0,0,0-.51-.56A7.2,7.2,0,0,0,394.25,61h-6.46v56.48h6.46a7.2,7.2,0,0,0,5.27-2.19,7.89,7.89,0,0,0,1.33-1.77A7.23,7.23,0,0,0,401.71,110Z"/><path class="cls-3" d="M93.22,110V68.43a7.09,7.09,0,0,0-1.67-4.71,6.77,6.77,0,0,0-.51-.56A7.22,7.22,0,0,0,85.76,61H79.31v56.48h6.45A7.22,7.22,0,0,0,91,115.26c.18-.18.35-.38.51-.57A7.08,7.08,0,0,0,93.22,110Z"/><path class="cls-1" d="M420.89,184.64q-4.27,0-4.27-5V136.44q0-11.9-13-17.36,13-5.1,13-17.27V76.61q0-7.81-6.55-13.4a22.39,22.39,0,0,0-6.25-3.83,25.16,25.16,0,0,0-9.57-1.77h-26V61h4.65V184.64h-4.65V188h24.19v-3.36h-4.64V120.8h6.46a7.2,7.2,0,0,1,5.27,2.19,7.67,7.67,0,0,1,1.33,1.77,7.23,7.23,0,0,1,.86,3.5v46.1q0,12.49,11,13.55c.66.06,1.38.09,2.11.09h6.46v-3.36Zm-21.37-69.38a7.2,7.2,0,0,1-5.27,2.19h-6.46V61h6.46a7.2,7.2,0,0,1,5.27,2.19,6.77,6.77,0,0,1,.51.56,7.1,7.1,0,0,1,1.68,4.71V110a7.23,7.23,0,0,1-.86,3.5A7.89,7.89,0,0,1,399.52,115.26Z"/><polygon class="cls-1" points="339.78 60.98 344.41 60.98 344.41 184.64 339.78 184.64 339.78 188 363.96 188 363.96 184.64 359.33 184.64 359.33 60.98 363.96 60.98 363.96 57.61 339.78 57.61 339.78 60.98"/><path class="cls-1" d="M318.76,57.61h-14.9l-13.1,127h-4.64V188h14v-3.36h-4.64l3.72-37.83h13.37L316,184.64h-4.64V188H335.5v-3.36h-4.64ZM299.4,143.54l6.81-70.47,6.19,70.47Z"/><polygon class="cls-1" points="267.68 60.98 278.86 60.98 278.86 96.71 293.68 96.71 293.68 57.61 248.13 57.61 248.13 60.98 252.76 60.98 252.76 184.64 248.13 184.64 248.13 188 272.31 188 272.31 184.64 267.68 184.64 267.68 120.8 284.4 120.8 284.4 117.44 267.68 117.44 267.68 60.98"/><path class="cls-1" d="M212.64,63.21a22.48,22.48,0,0,0-6.24-3.83,25.25,25.25,0,0,0-9.58-1.77h-26V61h4.65V184.64h-4.65V188h26a25.25,25.25,0,0,0,9.58-1.77,22.9,22.9,0,0,0,6.24-3.81q6.56-5.59,6.55-13.42V76.61Q219.19,68.8,212.64,63.21ZM202.09,182.46a7.17,7.17,0,0,1-5.27,2.18h-6.46V61h6.46a7.18,7.18,0,0,1,5.27,2.19,6.77,6.77,0,0,1,.51.56,7.1,7.1,0,0,1,1.68,4.71V177.18a7.14,7.14,0,0,1-1.68,4.72C202.44,182.09,202.27,182.28,202.09,182.46Z"/><path class="cls-1" d="M149.69,57.61H134.78l-13.09,127h-4.64V188h14v-3.36h-4.64l3.72-37.83h13.37l3.37,37.83h-4.64V188h24.18v-3.36h-4.63Zm-19.36,85.93,6.81-70.47,6.19,70.47Z"/><path class="cls-1" d="M108.14,179.63V136.44q0-11.9-13-17.36,13-5.1,13-17.27V76.61q0-7.81-6.55-13.4a22.3,22.3,0,0,0-6.26-3.83,25.16,25.16,0,0,0-9.57-1.77h-26V61H64.4V184.64H59.76V188H83.94v-3.36H79.31V120.8h6.45A7.22,7.22,0,0,1,91,123c.18.18.35.37.51.56a7.11,7.11,0,0,1,1.67,4.71v46.1q0,12.49,11,13.55c.67.06,1.38.09,2.11.09h6.45v-3.36h-.36Q108.14,184.64,108.14,179.63ZM91,115.26a7.22,7.22,0,0,1-5.28,2.19H79.31V61h6.45A7.22,7.22,0,0,1,91,63.16a6.77,6.77,0,0,1,.51.56,7.09,7.09,0,0,1,1.67,4.71V110a7.08,7.08,0,0,1-1.67,4.7C91.39,114.88,91.22,115.08,91,115.26Z"/><path class="cls-1" d="M48.94,62.29a22.89,22.89,0,0,0-6.25-3.82,25.2,25.2,0,0,0-9.57-1.77,23.68,23.68,0,0,0-14.94,4.91c-.29.23-.57.45-.84.68q-6.6,5.59-6.6,13.42v94.2q0,7.82,6.6,13.41c.27.23.55.46.84.68a23.68,23.68,0,0,0,14.94,4.91,25.2,25.2,0,0,0,9.57-1.77,23.39,23.39,0,0,0,6.25-3.82q6.54-5.59,6.54-13.41V117.45H33.12v3.35h7.45v57.29a7.14,7.14,0,0,1-1.67,4.71c-.16.19-.33.38-.51.56a7.45,7.45,0,0,1-10.55,0,7.15,7.15,0,0,1-2.18-5.27V67.52a7.44,7.44,0,0,1,7.46-7.45,7.16,7.16,0,0,1,5.27,2.18c.18.18.35.37.51.56a7.14,7.14,0,0,1,1.67,4.71V96.71H55.48v-21Q55.48,67.88,48.94,62.29Z"/></svg>