<?xml version="1.0" encoding="utf-8"?>
<!-- Generator: Adobe Illustrator 24.1.2, SVG Export Plug-In . SVG Version: 6.00 Build 0)  -->
<svg version="1.1" xmlns="http://www.w3.org/2000/svg" xmlns:xlink="http://www.w3.org/1999/xlink" x="0px" y="0px"
	 viewBox="0 0 188.69 55.79" style="enable-background:new 0 0 188.69 55.79;" xml:space="preserve">
<style type="text/css">
	.st0{fill:#FFFFFF;}
	.st1{fill:#F3C300;}
</style>
<g id="Layer_1">
	<rect x="50.9" y="4.71" class="st0" width="0.87" height="51.08"/>
	<g>
		<g>
			<path class="st0" d="M0,47.38v-6.35h2.44v6.28c0,1.81,0.9,2.74,2.4,2.74c1.49,0,2.4-0.9,2.4-2.67v-6.36h2.44v6.27
				c0,3.36-1.89,5.01-4.87,5.01C1.82,52.31,0,50.64,0,47.38z"/>
			<path class="st0" d="M12.15,46.61v-0.03c0-3.16,2.38-5.74,5.79-5.74c2.09,0,3.35,0.7,4.38,1.71l-1.56,1.79
				c-0.86-0.78-1.73-1.25-2.84-1.25c-1.87,0-3.22,1.56-3.22,3.46v0.03c0,1.9,1.32,3.49,3.22,3.49c1.27,0,2.05-0.51,2.92-1.3
				l1.56,1.57c-1.14,1.22-2.41,1.98-4.55,1.98C14.58,52.33,12.15,49.8,12.15,46.61z"/>
			<path class="st0" d="M24.83,41.03h8.46v2.22h-6.01v2.36h5.3v2.22h-5.3v4.3h-2.44V41.03z"/>
		</g>
		<g>
			<path class="st1" d="M22.93,28.98c0-0.92-0.22-1.81-0.64-2.67c-0.79-1.6-3.32-2.76-5.77-3.88c-1.19-0.55-2.39-1.1-3.34-1.67
				c-4.55-2.76-6.05-6.14-6.51-8.48c-0.12-0.64-0.19-1.29-0.19-1.94c0-2.01,0.59-3.92,1.68-5.36c4.3-5.75,11.58-5.09,13.71-4.75
				c-2.11,0.09-7.28,1.02-9.77,5.96c-0.49,0.97-0.74,1.96-0.74,2.95c0,4.03,4.11,7.51,7.41,10.3c1.14,0.97,2.22,1.88,3.03,2.72
				c1.46,1.53,2.21,3.16,2.21,4.85c0,1.97-1.03,3.55-1.64,4.31C22.77,30.58,22.93,29.78,22.93,28.98"/>
			<path class="st1" d="M2.75,26.63c1,0.84,3.09,2.23,6.99,3.33c1.99,0.56,3.85,0.6,5.34,0.64c1.34,0.03,2.41,0.06,3.07,0.43
				c0.55,0.31,0.88,0.79,0.88,1.3l-0.04,0.29c-0.19,0.75-1.21,1.56-3.49,1.58C8.67,34.25,4.41,29.11,2.75,26.63"/>
			<path class="st1" d="M15.07,14.8c0,0,2.84-4.75,5.77-5.52c3.55-0.93,5.51,0.59,5.51,0.59l0.98-1.95l1.51,7.45
				c0,0,0.27,0.68-0.98,1.52c-1.24,0.84-1.33,0.68-1.33,0.68s-0.8-3.05-2.4-3.38c-1.6-0.34-1.6,1.78-1.51,2.45
				c0.09,0.68,1.45,3.45,3.73,2.28c2.49-1.27,3.64-2.88,3.64-2.88s0.36-0.84,0.71-0.59c0.35,0.25,1.69,1.69,1.69,1.69l-0.53,8.88
				c0,0,0,1.1-1.51,1.52c-1.51,0.42-1.51,0.34-1.51,0.34l0.8-2.71h0.98l-0.27-6.26c0,0-0.84,4.09-2.4,6.77
				c-1.86,3.21-4.89,5.84-4.89,5.84s1.91-2.28,1.61-5.05c-0.2-1.84-1-3.97-4.98-7.25C17.44,17.37,15.07,14.8,15.07,14.8"/>
			<path class="st1" d="M19.71,32.1c0-0.28-0.06-0.54-0.18-0.78c-0.45-0.85-1.66-1.32-3.61-1.39c-3.55-0.12-12.06-1.01-14.45-6.64
				c-0.76-1.81-1.15-3.78-1.15-5.86c0-2.37,0.51-4.31,0.85-5.36C1.12,12.37,1.1,12.9,1.1,12.9c0,2.22,0.53,6.39,4.11,9.35
				c2.27,1.88,5.67,3.36,10.1,4.41c3,0.71,4.72,1.78,5.1,3.19l0.08,0.6c0,0.7-0.31,1.43-0.88,2.19
				C19.65,32.45,19.71,32.1,19.71,32.1"/>
			<path class="st1" d="M21.29,30.52c0-0.4-0.07-0.84-0.26-1.28c-0.65-1.52-2.46-2.62-5.38-3.25c-7.67-1.67-12.01-4.74-13.28-9.37
				c-0.31-1.15-0.45-2.22-0.45-3.21c0-6.35,5.59-9.77,7.49-10.74c-1.02,0.96-3.18,3.3-3.59,6.27C5.74,9.47,5.71,10,5.71,10.52
				c0,3.78,1.95,7.09,5.92,10.1c1.26,0.95,2.95,1.71,4.58,2.45c2.35,1.06,4.57,2.06,5.44,3.53c0.43,0.73,0.6,1.44,0.6,2.09
				c0,1.36-0.7,2.48-1.18,3.08C21.18,31.44,21.29,31.01,21.29,30.52"/>
			<path class="st1" d="M21.06,4.45c-1.24,0-2.39-1.15-2.39-2.39c0,1.24-1.15,2.39-2.39,2.39c1.24,0,2.39,1.15,2.39,2.4
				C18.67,5.6,19.82,4.45,21.06,4.45"/>
		</g>
	</g>
</g>
<g id="Layer_2">
	<g>
		<path class="st0" d="M69.41,15.01v-0.05c0-5.29,4.18-9.63,9.92-9.63c5.74,0,9.87,4.28,9.87,9.57v0.05c0,5.29-4.18,9.63-9.92,9.63
			S69.41,20.3,69.41,15.01z M84.92,15.01v-0.05c0-3.19-2.34-5.85-5.64-5.85s-5.59,2.61-5.59,5.8v0.05c0,3.19,2.34,5.85,5.64,5.85
			S84.92,18.2,84.92,15.01z"/>
		<path class="st0" d="M93.12,13.47h-1.68v-3.32h1.68v-0.9c0-1.57,0.4-2.71,1.14-3.46s1.84-1.12,3.27-1.12
			c1.28,0,2.13,0.16,2.87,0.4v3.35c-0.59-0.21-1.14-0.35-1.84-0.35c-0.93,0-1.46,0.48-1.46,1.54v0.56h3.27v3.3h-3.22v10.8h-4.04
			V13.47z M103.27,13.47h-1.68v-3.32h1.68v-0.9c0-1.57,0.4-2.71,1.14-3.46s1.84-1.12,3.27-1.12c1.28,0,2.13,0.16,2.87,0.4v3.35
			c-0.59-0.21-1.14-0.35-1.84-0.35c-0.93,0-1.46,0.48-1.46,1.54v0.56h3.27v3.3h-3.22v10.8h-4.04V13.47z M112.82,4.85h4.26v3.59
			h-4.26V4.85z M112.93,10.01h4.04v14.26h-4.04V10.01z"/>
		<path class="st0" d="M120.09,17.22v-0.05c0-4.07,3.11-7.42,7.47-7.42c2.69,0,4.36,0.9,5.69,2.39l-2.47,2.66
			c-0.9-0.96-1.81-1.57-3.24-1.57c-2.02,0-3.46,1.78-3.46,3.88v0.05c0,2.18,1.41,3.94,3.62,3.94c1.36,0,2.29-0.58,3.27-1.52
			l2.37,2.39c-1.38,1.52-2.98,2.61-5.82,2.61C123.23,24.58,120.09,21.29,120.09,17.22z"/>
		<path class="st0" d="M134.88,17.22v-0.05c0-4.07,2.9-7.42,7.05-7.42c4.76,0,6.94,3.7,6.94,7.74c0,0.32-0.03,0.69-0.05,1.06h-9.92
			c0.4,1.84,1.68,2.79,3.48,2.79c1.36,0,2.34-0.43,3.46-1.46l2.31,2.05c-1.33,1.65-3.25,2.66-5.82,2.66
			C138.04,24.58,134.88,21.58,134.88,17.22z M144.93,16.02c-0.24-1.81-1.3-3.03-3-3.03c-1.68,0-2.77,1.2-3.08,3.03H144.93z"/>
		<path class="st0" d="M159.16,17.22v-0.05c0-4.1,3.3-7.42,7.74-7.42c4.42,0,7.69,3.27,7.69,7.37v0.05c0,4.1-3.3,7.42-7.74,7.42
			C162.43,24.58,159.16,21.31,159.16,17.22z M170.6,17.22v-0.05c0-2.1-1.52-3.94-3.75-3.94c-2.31,0-3.7,1.78-3.7,3.88v0.05
			c0,2.1,1.52,3.94,3.75,3.94C169.21,21.1,170.6,19.32,170.6,17.22z"/>
		<path class="st0" d="M178.21,13.47h-1.68v-3.32h1.68v-0.9c0-1.57,0.4-2.71,1.14-3.46c0.75-0.74,1.83-1.12,3.27-1.12
			c1.28,0,2.13,0.16,2.87,0.4v3.35c-0.58-0.21-1.14-0.35-1.83-0.35c-0.93,0-1.46,0.48-1.46,1.54v0.56h3.27v3.3h-3.22v10.8h-4.04
			V13.47z"/>
		<path class="st0" d="M69.47,33.31h8.51c2.37,0,4.2,0.67,5.42,1.89c1.04,1.04,1.6,2.5,1.6,4.26v0.05c0,3.01-1.62,4.89-3.99,5.77
			l4.55,6.65h-4.79l-3.99-5.96h-3.22v5.96h-4.1V33.31z M77.71,42.35c2,0,3.14-1.06,3.14-2.63v-0.05c0-1.76-1.22-2.66-3.22-2.66
			h-4.07v5.35H77.71z"/>
		<path class="st0" d="M87.32,44.88v-0.05c0-4.07,2.9-7.42,7.05-7.42c4.76,0,6.94,3.7,6.94,7.74c0,0.32-0.03,0.69-0.05,1.06h-9.92
			c0.4,1.84,1.68,2.79,3.48,2.79c1.36,0,2.34-0.43,3.46-1.46l2.31,2.05c-1.33,1.65-3.25,2.66-5.83,2.66
			C90.48,52.24,87.32,49.24,87.32,44.88z M97.37,43.68c-0.24-1.81-1.3-3.03-3-3.03c-1.68,0-2.77,1.2-3.08,3.03H97.37z"/>
		<path class="st0" d="M103.2,50.04l1.73-2.66c1.54,1.12,3.17,1.7,4.5,1.7c1.17,0,1.7-0.43,1.7-1.06v-0.05
			c0-0.88-1.38-1.17-2.95-1.65c-2-0.58-4.26-1.52-4.26-4.28v-0.05c0-2.9,2.34-4.52,5.21-4.52c1.81,0,3.78,0.61,5.32,1.65l-1.54,2.79
			c-1.41-0.82-2.82-1.33-3.86-1.33c-0.98,0-1.49,0.43-1.49,0.98v0.05c0,0.8,1.36,1.17,2.9,1.7c2,0.67,4.31,1.62,4.31,4.23v0.05
			c0,3.16-2.37,4.6-5.45,4.6C107.32,52.19,105.09,51.53,103.2,50.04z"/>
		<path class="st0" d="M116.98,44.88v-0.05c0-4.07,2.9-7.42,7.05-7.42c4.76,0,6.94,3.7,6.94,7.74c0,0.32-0.03,0.69-0.05,1.06h-9.92
			c0.4,1.84,1.68,2.79,3.48,2.79c1.36,0,2.34-0.43,3.46-1.46l2.31,2.05c-1.33,1.65-3.25,2.66-5.83,2.66
			C120.14,52.24,116.98,49.24,116.98,44.88z M127.03,43.68c-0.24-1.81-1.3-3.03-3-3.03c-1.68,0-2.77,1.2-3.08,3.03H127.03z"/>
		<path class="st0" d="M133.12,47.83v-0.05c0-3.11,2.37-4.55,5.75-4.55c1.44,0,2.47,0.24,3.48,0.58v-0.24
			c0-1.68-1.04-2.61-3.06-2.61c-1.54,0-2.63,0.29-3.94,0.77l-1.01-3.08c1.57-0.69,3.11-1.14,5.53-1.14c2.21,0,3.8,0.58,4.81,1.6
			c1.06,1.06,1.54,2.63,1.54,4.55v8.27h-3.91v-1.54c-0.98,1.09-2.34,1.81-4.31,1.81C135.33,52.19,133.12,50.65,133.12,47.83z
			 M142.4,46.9v-0.72c-0.69-0.32-1.6-0.53-2.58-0.53c-1.73,0-2.79,0.69-2.79,1.97v0.05c0,1.09,0.9,1.73,2.21,1.73
			C141.13,49.4,142.4,48.36,142.4,46.9z"/>
		<path class="st0" d="M149.72,37.67h4.04v2.87c0.82-1.97,2.15-3.24,4.55-3.14v4.23h-0.21c-2.69,0-4.33,1.62-4.33,5.03v5.27h-4.04
			V37.67z"/>
		<path class="st0" d="M159.75,44.88v-0.05c0-4.07,3.11-7.42,7.47-7.42c2.69,0,4.36,0.9,5.69,2.39l-2.47,2.66
			c-0.9-0.96-1.81-1.57-3.25-1.57c-2.02,0-3.46,1.78-3.46,3.88v0.05c0,2.18,1.41,3.94,3.62,3.94c1.36,0,2.29-0.58,3.27-1.52
			l2.37,2.39c-1.38,1.52-2.98,2.61-5.83,2.61C162.89,52.24,159.75,48.95,159.75,44.88z"/>
		<path class="st0" d="M175.63,32.51h4.04v7.18c0.93-1.2,2.13-2.29,4.17-2.29c3.06,0,4.84,2.02,4.84,5.29v9.23h-4.04v-7.95
			c0-1.92-0.9-2.9-2.45-2.9c-1.54,0-2.53,0.98-2.53,2.9v7.95h-4.04V32.51z"/>
	</g>
</g>
</svg>
