<?xml version="1.0" encoding="utf-8"?>
<!-- Generator: Adobe Illustrator 22.0.1, SVG Export Plug-In . SVG Version: 6.00 Build 0)  -->
<svg version="1.1" id="Layer_1" xmlns="http://www.w3.org/2000/svg" xmlns:xlink="http://www.w3.org/1999/xlink" x="0px" y="0px"
	 viewBox="0 0 300.3 55.9" style="enable-background:new 0 0 300.3 55.9;" xml:space="preserve">
<style type="text/css">
	.st0{fill:#FFC904;}
</style>
<g>
	<g id="Layer_1_1_">
		<rect x="50.9" y="4.8" class="st0" width="0.9" height="51.1"/>
		<g>
			<g>
				<path class="st0" d="M0,47.5v-6.3h2.4v6.3c0,1.8,0.9,2.7,2.4,2.7s2.4-0.9,2.4-2.7v-6.4h2.4v6.3c0,3.4-1.9,5-4.9,5
					C1.8,52.4,0,50.7,0,47.5z"/>
				<path class="st0" d="M12.2,46.7L12.2,46.7c0-3.2,2.4-5.8,5.8-5.8c2.1,0,3.3,0.7,4.4,1.7l-1.6,1.8c-0.9-0.8-1.7-1.3-2.8-1.3
					c-1.9,0-3.2,1.6-3.2,3.5l0,0c0,1.9,1.3,3.5,3.2,3.5c1.3,0,2-0.5,2.9-1.3l1.6,1.6c-1.1,1.2-2.4,2-4.6,2
					C14.6,52.4,12.2,49.9,12.2,46.7z"/>
				<path class="st0" d="M24.8,41.1h8.5v2.2h-6v2.4h5.3v2.2h-5.3v4.3h-2.4L24.8,41.1L24.8,41.1z"/>
			</g>
			<g>
				<path class="st0" d="M22.9,29.1c0-0.9-0.2-1.8-0.6-2.7c-0.8-1.6-3.3-2.8-5.8-3.9c-1.2-0.5-2.4-1.1-3.3-1.7
					c-4.6-2.8-6.1-6.1-6.5-8.5c-0.1-0.6-0.2-1.3-0.2-1.9c0-2,0.6-3.9,1.7-5.4c4.3-5.8,11.6-5.1,13.7-4.8c-2.1,0.1-7.3,1-9.8,6
					c-0.5,1-0.7,2-0.7,3c0,4,4.1,7.5,7.4,10.3c1.1,1,2.2,1.9,3,2.7c1.5,1.5,2.2,3.2,2.2,4.8c0,2-1,3.5-1.6,4.3
					C22.8,30.7,22.9,29.9,22.9,29.1"/>
				<path class="st0" d="M2.8,26.7c1,0.8,3.1,2.2,7,3.3c2,0.6,3.9,0.6,5.3,0.6c1.3,0,2.4,0.1,3.1,0.4c0.5,0.3,0.9,0.8,0.9,1.3v0.3
					c-0.2,0.7-1.2,1.6-3.5,1.6C8.7,34.3,4.4,29.2,2.8,26.7"/>
				<path class="st0" d="M15.1,14.9c0,0,2.8-4.8,5.8-5.5c3.6-0.9,5.5,0.6,5.5,0.6l1-1.9l1.5,7.4c0,0,0.3,0.7-1,1.5
					c-1.2,0.8-1.3,0.7-1.3,0.7s-0.8-3-2.4-3.4c-1.6-0.3-1.6,1.8-1.5,2.5s1.4,3.4,3.7,2.3c2.5-1.3,3.6-2.9,3.6-2.9s0.4-0.8,0.7-0.6
					c0.4,0.3,1.7,1.7,1.7,1.7l-0.5,8.8c0,0,0,1.1-1.5,1.5c-1.5,0.5-1.5,0.4-1.5,0.4l0.8-2.7h1L30.4,19c0,0-0.8,4.1-2.4,6.8
					c-1.9,3.2-4.9,5.8-4.9,5.8s1.9-2.3,1.6-5.1c-0.2-1.8-1-4-5-7.2C17.5,17.5,15.1,14.9,15.1,14.9"/>
				<path class="st0" d="M19.7,32.2c0-0.3-0.1-0.5-0.2-0.8c-0.4-0.8-1.6-1.3-3.6-1.4c-3.5-0.1-12.1-1-14.4-6.6
					c-0.8-1.8-1.2-3.8-1.2-5.9c0-2.4,0.5-4.3,0.8-5.4c0,0.3-0.1,0.8-0.1,0.8c0,2.2,0.5,6.4,4.1,9.4c2.3,1.9,5.7,3.4,10.1,4.4
					c3,0.7,4.7,1.8,5.1,3.2l0.1,0.6c0,0.7-0.3,1.4-0.9,2.2C19.7,32.5,19.7,32.2,19.7,32.2"/>
				<path class="st0" d="M21.3,30.6c0-0.4-0.1-0.8-0.3-1.3c-0.6-1.5-2.5-2.6-5.4-3.3c-7.7-1.7-12-4.7-13.3-9.4
					c-0.2-1-0.4-2.1-0.4-3.1c0-6.4,5.6-9.8,7.5-10.7c-1,1-3.2,3.3-3.6,6.3c-0.1,0.5-0.1,1.1-0.1,1.6c0,3.8,1.9,7.1,5.9,10.1
					c1.3,0.9,2.9,1.7,4.6,2.5c2.3,1.1,4.6,2.1,5.4,3.5c0.4,0.7,0.6,1.4,0.6,2.1c0,1.4-0.7,2.5-1.2,3.1
					C21.2,31.5,21.3,31.1,21.3,30.6"/>
				<path class="st0" d="M21.1,4.5c-1.2,0-2.4-1.2-2.4-2.4c0,1.2-1.2,2.4-2.4,2.4c1.2,0,2.4,1.2,2.4,2.4C18.7,5.7,19.8,4.5,21.1,4.5
					"/>
			</g>
		</g>
	</g>
	<g id="Layer_2_1_">
		<g>
			<path class="st0" d="M70.7,15.1L70.7,15.1c0-5.3,4-9.7,9.7-9.7c3.5,0,5.6,1.2,7.3,2.9l-2.6,3c-1.4-1.3-2.9-2.1-4.8-2.1
				c-3.1,0-5.4,2.6-5.4,5.8v0.1c0,3.2,2.2,5.9,5.4,5.9c2.1,0,3.4-0.9,4.9-2.2l2.6,2.6c-1.9,2-4,3.3-7.6,3.3
				C74.8,24.7,70.7,20.5,70.7,15.1z"/>
			<path class="st0" d="M89.8,17.3L89.8,17.3c0-4.1,3.3-7.5,7.7-7.5s7.7,3.3,7.7,7.4v0.1c0,4.1-3.3,7.4-7.7,7.4
				C93.1,24.7,89.8,21.4,89.8,17.3z M101.2,17.3L101.2,17.3c0-2.2-1.5-4-3.8-4s-3.7,1.8-3.7,3.9v0.1c0,2.1,1.5,3.9,3.8,3.9
				C99.9,21.2,101.2,19.4,101.2,17.3z"/>
			<path class="st0" d="M108.3,4.9h4v19.4h-4V4.9z"/>
			<path class="st0" d="M116.4,4.9h4v19.4h-4V4.9z"/>
			<path class="st0" d="M123.5,17.3L123.5,17.3c0-4.1,2.9-7.5,7-7.5c4.8,0,6.9,3.7,6.9,7.7c0,0.3,0,0.7-0.1,1.1h-9.9
				c0.4,1.8,1.7,2.8,3.5,2.8c1.4,0,2.3-0.4,3.5-1.5l2.3,2c-1.3,1.6-3.2,2.7-5.8,2.7C126.7,24.7,123.5,21.7,123.5,17.3z M133.6,16.1
				c-0.2-1.8-1.3-3-3-3c-1.7,0-2.8,1.2-3.1,3H133.6z"/>
			<path class="st0" d="M140.6,27.2l1.4-3c1.5,0.8,2.9,1.3,4.8,1.3c2.8,0,4.1-1.3,4.1-3.9v-0.7c-1.2,1.4-2.5,2.3-4.7,2.3
				c-3.3,0-6.3-2.4-6.3-6.6v-0.1c0-4.3,3.1-6.6,6.3-6.6c2.2,0,3.5,0.9,4.6,2.1v-1.9h4v11c0,2.6-0.6,4.4-1.8,5.6
				c-1.3,1.3-3.4,1.9-6.1,1.9C144.6,28.7,142.4,28.1,140.6,27.2z M150.9,16.5L150.9,16.5c0-2-1.5-3.4-3.5-3.4s-3.5,1.4-3.5,3.3v0.1
				c0,2,1.5,3.3,3.5,3.3S150.9,18.5,150.9,16.5z"/>
			<path class="st0" d="M157.8,17.3L157.8,17.3c0-4.1,2.9-7.5,7-7.5c4.8,0,6.9,3.7,6.9,7.7c0,0.3,0,0.7-0.1,1.1h-9.9
				c0.4,1.8,1.7,2.8,3.5,2.8c1.4,0,2.3-0.4,3.5-1.5l2.3,2c-1.3,1.6-3.2,2.7-5.8,2.7C161,24.7,157.8,21.7,157.8,17.3z M167.8,16.1
				c-0.2-1.8-1.3-3-3-3c-1.7,0-2.8,1.2-3.1,3H167.8z"/>
			<path class="st0" d="M182.1,17.3L182.1,17.3c0-4.1,3.3-7.5,7.7-7.5s7.7,3.3,7.7,7.4v0.1c0,4.1-3.3,7.4-7.7,7.4
				C185.3,24.7,182.1,21.4,182.1,17.3z M193.5,17.3L193.5,17.3c0-2.2-1.5-4-3.8-4c-2.3,0-3.7,1.8-3.7,3.9v0.1c0,2.1,1.5,3.9,3.8,3.9
				C192.1,21.2,193.5,19.4,193.5,17.3z"/>
			<path class="st0" d="M201.1,13.6h-1.7v-3.3h1.7V9.4c0-1.6,0.4-2.7,1.1-3.5c0.7-0.7,1.8-1.1,3.3-1.1c1.3,0,2.1,0.2,2.9,0.4v3.4
				c-0.6-0.2-1.1-0.3-1.8-0.3c-0.9,0-1.5,0.5-1.5,1.5v0.6h3.3v3.2h-3.2v10.8h-4V13.6H201.1z"/>
		</g>
		<g>
			<path class="st0" d="M70.7,42.9L70.7,42.9c0-5.3,4.1-9.7,9.8-9.7c3.4,0,5.4,0.9,7.3,2.6l-2.6,3.1c-1.4-1.2-2.7-1.9-4.9-1.9
				c-3,0-5.3,2.6-5.3,5.8v0.1c0,3.4,2.3,5.9,5.6,5.9c1.5,0,2.8-0.4,3.9-1.1V45h-4.1v-3.5h8.1v8.1c-1.9,1.6-4.5,3-8,3
				C74.7,52.5,70.7,48.4,70.7,42.9z"/>
			<path class="st0" d="M92,37.9h4v2.9c0.8-2,2.2-3.2,4.5-3.1v4.2h-0.2c-2.7,0-4.3,1.6-4.3,5v5.3h-4V37.9z"/>
			<path class="st0" d="M101.6,48.1L101.6,48.1c0-3.2,2.4-4.6,5.7-4.6c1.4,0,2.5,0.2,3.5,0.6v-0.2c0-1.7-1-2.6-3.1-2.6
				c-1.5,0-2.6,0.3-3.9,0.8l-1-3.1c1.6-0.7,3.1-1.1,5.5-1.1c2.2,0,3.8,0.6,4.8,1.6c1.1,1.1,1.5,2.6,1.5,4.5v8.3h-3.9v-1.7
				c-1,1.1-2.3,1.8-4.3,1.8C103.8,52.5,101.6,50.9,101.6,48.1z M110.9,47.2v-0.7c-0.7-0.3-1.6-0.5-2.6-0.5c-1.7,0-2.8,0.7-2.8,2v0.1
				c0,1.1,0.9,1.7,2.2,1.7C109.6,49.7,110.9,48.6,110.9,47.2z"/>
			<path class="st0" d="M117.5,45.1L117.5,45.1c0-4.8,3.1-7.4,6.5-7.4c2.2,0,3.5,1,4.4,2.1v-7h4v19.4h-4v-2c-1,1.3-2.3,2.3-4.4,2.3
				C120.7,52.5,117.5,49.9,117.5,45.1z M128.5,45.1L128.5,45.1c0-2.4-1.6-4-3.5-4s-3.5,1.5-3.5,3.9v0.1c0,2.4,1.6,3.9,3.5,3.9
				C127,49,128.5,47.5,128.5,45.1z"/>
			<path class="st0" d="M136,47.2V38h4v8c0,1.9,0.9,2.9,2.4,2.9s2.5-1,2.5-2.9v-8h4v14.3h-4v-2c-0.9,1.2-2.1,2.3-4.2,2.3
				C137.8,52.5,136,50.4,136,47.2z"/>
			<path class="st0" d="M151.9,48.1L151.9,48.1c0-3.2,2.4-4.6,5.7-4.6c1.4,0,2.5,0.2,3.5,0.6v-0.2c0-1.7-1-2.6-3.1-2.6
				c-1.5,0-2.6,0.3-3.9,0.8l-1-3.1c1.6-0.7,3.1-1.1,5.5-1.1c2.2,0,3.8,0.6,4.8,1.6c1.1,1.1,1.5,2.6,1.5,4.5v8.3H161v-1.7
				c-1,1.1-2.3,1.8-4.3,1.8C154.1,52.5,151.9,50.9,151.9,48.1z M161.1,47.2v-0.7c-0.7-0.3-1.6-0.5-2.6-0.5c-1.7,0-2.8,0.7-2.8,2v0.1
				c0,1.1,0.9,1.7,2.2,1.7C159.9,49.7,161.1,48.6,161.1,47.2z"/>
			<path class="st0" d="M169,48.1v-6.8h-1.7v-3.5h1.7v-3.6h4v3.6h3.4v3.5H173v6.1c0,0.9,0.4,1.4,1.3,1.4c0.7,0,1.4-0.2,2-0.5v3.3
				c-0.9,0.5-1.8,0.8-3.2,0.8C170.7,52.4,169,51.4,169,48.1z"/>
			<path class="st0" d="M178.3,45.1L178.3,45.1c0-4.1,2.9-7.5,7-7.5c4.8,0,6.9,3.7,6.9,7.7c0,0.3,0,0.7-0.1,1.1h-9.9
				c0.4,1.8,1.7,2.8,3.5,2.8c1.4,0,2.3-0.4,3.5-1.5l2.3,2c-1.3,1.6-3.2,2.7-5.8,2.7C181.4,52.5,178.3,49.5,178.3,45.1z M188.3,43.9
				c-0.2-1.8-1.3-3-3-3c-1.7,0-2.8,1.2-3.1,3H188.3z"/>
			<path class="st0" d="M202.4,49.5l2.4-2.9c1.7,1.4,3.4,2.3,5.6,2.3c1.7,0,2.7-0.7,2.7-1.8V47c0-1-0.6-1.6-3.8-2.4
				c-3.8-1-6.2-2-6.2-5.7v-0.1c0-3.4,2.7-5.6,6.5-5.6c2.7,0,5,0.9,6.9,2.4l-2.1,3.1c-1.6-1.1-3.3-1.8-4.8-1.8s-2.4,0.7-2.4,1.6v0.1
				c0,1.2,0.8,1.6,4,2.4c3.8,1,5.9,2.3,5.9,5.6v0.1c0,3.7-2.8,5.8-6.8,5.8C207.5,52.5,204.6,51.5,202.4,49.5z"/>
			<path class="st0" d="M220.8,48.1v-6.8h-1.7v-3.5h1.7v-3.6h4v3.6h3.4v3.5h-3.4v6.1c0,0.9,0.4,1.4,1.3,1.4c0.7,0,1.4-0.2,2-0.5v3.3
				c-0.9,0.5-1.8,0.8-3.2,0.8C222.5,52.4,220.8,51.4,220.8,48.1z"/>
			<path class="st0" d="M231.1,47.2V38h4v8c0,1.9,0.9,2.9,2.4,2.9s2.5-1,2.5-2.9v-8h4v14.3h-4v-2c-0.9,1.2-2.1,2.3-4.2,2.3
				C232.9,52.5,231.1,50.4,231.1,47.2z"/>
			<path class="st0" d="M247.1,45.1L247.1,45.1c0-4.8,3.1-7.4,6.5-7.4c2.2,0,3.5,1,4.4,2.1v-7h4v19.4h-4v-2c-1,1.3-2.3,2.3-4.4,2.3
				C250.3,52.5,247.1,49.9,247.1,45.1z M258.1,45.1L258.1,45.1c0-2.4-1.6-4-3.5-4s-3.5,1.5-3.5,3.9v0.1c0,2.4,1.6,3.9,3.5,3.9
				S258.1,47.5,258.1,45.1z"/>
			<path class="st0" d="M265.8,32.8h4.3v3.6h-4.3V32.8z M265.9,37.9h4v14.3h-4V37.9z"/>
			<path class="st0" d="M273,45.1L273,45.1c0-4.1,2.9-7.5,7-7.5c4.8,0,6.9,3.7,6.9,7.7c0,0.3,0,0.7-0.1,1.1h-9.9
				c0.4,1.8,1.7,2.8,3.5,2.8c1.4,0,2.3-0.4,3.5-1.5l2.3,2c-1.3,1.6-3.2,2.7-5.8,2.7C276.2,52.5,273,49.5,273,45.1z M283.1,43.9
				c-0.2-1.8-1.3-3-3-3s-2.8,1.2-3.1,3H283.1z"/>
			<path class="st0" d="M288.9,50.3l1.7-2.7c1.5,1.1,3.2,1.7,4.5,1.7c1.2,0,1.7-0.4,1.7-1.1v-0.1c0-0.9-1.4-1.2-3-1.6
				c-2-0.6-4.3-1.5-4.3-4.3v-0.1c0-2.9,2.3-4.5,5.2-4.5c1.8,0,3.8,0.6,5.3,1.6l-1.5,2.8c-1.4-0.8-2.8-1.3-3.9-1.3
				c-1,0-1.5,0.4-1.5,1v0.1c0,0.8,1.4,1.2,2.9,1.7c2,0.7,4.3,1.6,4.3,4.2v0.1c0,3.2-2.4,4.6-5.5,4.6C293,52.5,290.8,51.8,288.9,50.3
				z"/>
		</g>
	</g>
</g>
</svg>
