<?xml version="1.0" encoding="utf-8"?>
<!-- Generator: Adobe Illustrator 17.0.0, SVG Export Plug-In . SVG Version: 6.00 Build 0)  -->
<!DOCTYPE svg PUBLIC "-//W3C//DTD SVG 1.1//EN" "//www.w3.org/Graphics/SVG/1.1/DTD/svg11.dtd">
<svg version="1.1" id="Layer_1" xmlns="//www.w3.org/2000/svg" xmlns:xlink="//www.w3.org/1999/xlink" x="0px" y="0px"
	 width="33.816px" height="33.789px" viewBox="0 0 33.816 33.789" enable-background="new 0 0 33.816 33.789" xml:space="preserve">
<g>
	<g>
		<path d="M-85.774-154.247v-9.377c0-1.299,0.756-1.606,1.677-0.697l10.759,10.759c0.921,0.921,0.602,1.677-0.697,1.677h-9.377
			C-84.712-151.885-85.774-152.948-85.774-154.247z"/>
	</g>
	<g>
		<path d="M-70.599-146.335v20.962c0,1.299-1.063,2.362-2.362,2.362h-29.725c-1.299,0-2.362-1.063-2.362-2.362v-39.326
			c0-1.299,1.063-2.362,2.362-2.362h11.361c1.299,0,2.362,1.063,2.362,2.362v13.64c0,1.299,1.063,2.362,2.362,2.362h13.64
			C-71.662-148.696-70.599-147.634-70.599-146.335z"/>
	</g>
</g>
<g>
	<g>
		<path d="M-214.967-239.94c10.728,0,19.457,8.728,19.457,19.457s-8.728,19.457-19.457,19.457s-19.457-8.728-19.457-19.457
			S-225.695-239.94-214.967-239.94 M-214.967-241.94c-11.85,0-21.457,9.606-21.457,21.457c0,11.85,9.606,21.457,21.457,21.457
			c11.85,0,21.457-9.606,21.457-21.457C-193.51-232.334-203.117-241.94-214.967-241.94L-214.967-241.94z"/>
	</g>
	<g>
		<rect x="-215.979" y="-240.67" width="2" height="41"/>
	</g>
	<g>
		<rect x="-235.604" y="-221.431" width="41.25" height="2"/>
	</g>
	<g>
		<rect x="-232.729" y="-231.654" width="35.333" height="2"/>
	</g>
	<g>
		<rect x="-232.562" y="-211.207" width="35.166" height="2"/>
	</g>
	<g>
		<path d="M-214.967-239.94c5.414,0,9.987,8.91,9.987,19.457s-4.574,19.457-9.987,19.457s-9.987-8.91-9.987-19.457
			S-220.38-239.94-214.967-239.94 M-214.967-241.94c-6.62,0-11.987,9.606-11.987,21.457c0,11.85,5.367,21.457,11.987,21.457
			s11.987-9.606,11.987-21.457C-202.979-232.334-208.346-241.94-214.967-241.94L-214.967-241.94z"/>
	</g>
</g>
<g>
	<path d="M-254.875-205.735c-8.173,0-15.498-6.296-15.806-6.564c-1.89-1.518-5.604-5.564-7.851-9.73
		c-2.096-3.883-2.854-8.152-2.08-11.715c0.748-3.444,4.802-5.356,4.974-5.436c0.429-0.199,0.942-0.068,1.225,0.314l7.667,10.392
		c0.244,0.332,0.261,0.779,0.041,1.127c-1.603,2.542-3.677,3.181-5.027,3.296c2.694,5.581,7.11,8.203,9.256,9.197
		c0.426-3.737,3.212-5.177,3.346-5.244c0.34-0.171,0.745-0.133,1.049,0.095l10.288,7.751c0.317,0.239,0.463,0.643,0.371,1.029
		C-247.871-209.324-250.007-205.735-254.875-205.735z M-275.504-236.976c-1.007,0.611-2.773,1.907-3.152,3.656
		c-0.675,3.103,0.013,6.872,1.885,10.341c2.114,3.92,5.585,7.708,7.374,9.146c0.1,0.085,7.108,6.098,14.522,6.098
		c3.48,0,4.844-2.245,5.304-3.351l-9.147-6.892c-0.714,0.578-1.946,1.959-1.801,4.53c0.019,0.325-0.122,0.639-0.378,0.841
		c-0.256,0.202-0.593,0.266-0.906,0.174c-0.351-0.105-8.649-2.677-12.431-12.357c-0.139-0.356-0.063-0.76,0.196-1.041
		c0.259-0.282,0.653-0.388,1.021-0.281c-0.001,0-0.001,0-0.001,0c0.001,0,0.311,0.083,0.779,0.083c0.959,0,2.295-0.334,3.457-1.834
		L-275.504-236.976z"/>
</g>
<g>
	<path d="M-275.744-163.164c0,0-3.945,1.826-4.627,4.967c-0.682,3.14-0.204,7.326,2.077,11.553s6.043,8.334,7.991,9.9
		c0,0,7.602,6.62,15.871,6.62c5.619,0,6.787-4.941,6.787-4.941l-10.778-8.121c0,0-3.223,1.614-2.969,6.089
		c0,0-8.526-2.542-12.346-12.323c0,0,3.557,1.06,6.026-2.857L-275.744-163.164z"/>
</g>
<g>
	<g>
		<path d="M-310.491-209.107h-21.031c-0.552,0-1-0.448-1-1v-3.627c0-0.047,0.003-0.094,0.01-0.14l0.003-0.603
			c0-5.424,2.648-10.083,6.343-11.7c-1.504-1.41-2.403-3.41-2.403-5.533c0-4.17,3.393-7.563,7.563-7.563s7.563,3.393,7.563,7.563
			c0,2.124-0.9,4.123-2.403,5.533c3.695,1.617,6.343,6.276,6.343,11.7l0.003,0.606c0.006,0.044,0.009,0.09,0.009,0.136v3.627
			C-309.491-209.555-309.938-209.107-310.491-209.107z M-330.521-211.107h19.031v-2.499c-0.005-0.04-0.008-0.08-0.008-0.121
			l-0.004-0.75c0-5.457-2.984-9.976-6.793-10.29c-0.452-0.037-0.822-0.374-0.902-0.819c-0.08-0.446,0.149-0.891,0.56-1.083
			c1.941-0.91,3.196-2.889,3.196-5.042c0-3.067-2.496-5.563-5.563-5.563s-5.563,2.496-5.563,5.563c0,2.152,1.254,4.131,3.196,5.042
			c0.411,0.192,0.64,0.636,0.56,1.083c-0.081,0.446-0.451,0.782-0.902,0.819c-3.81,0.314-6.793,4.833-6.793,10.29l-0.004,0.748
			c0,0.043-0.003,0.085-0.009,0.127V-211.107z"/>
	</g>
	<g>
		<path d="M-298.519-211.66h-11.97c-0.552,0-1-0.448-1-1v-0.928c-0.007-0.046-0.01-0.094-0.01-0.142v-0.75
			c0-2.1-0.442-4.121-1.279-5.843c-0.148-0.304-0.132-0.663,0.042-0.952c0.726-1.208,1.679-2.132,2.752-2.699
			c-0.929-1.014-1.475-2.358-1.475-3.776c0-3.083,2.508-5.59,5.59-5.59c3.077,0,5.58,2.508,5.58,5.59
			c0,1.419-0.543,2.762-1.468,3.775c2.485,1.322,4.228,4.547,4.228,8.265v0.381c0.007,0.045,0.01,0.091,0.01,0.139v2.53
			C-297.519-212.108-297.967-211.66-298.519-211.66z M-309.489-213.66h9.97v-1.391c-0.007-0.045-0.01-0.091-0.01-0.139v-0.52
			c0-3.596-2.007-6.688-4.474-6.894c-0.451-0.038-0.821-0.374-0.901-0.82s0.15-0.89,0.561-1.082
			c1.268-0.593,2.055-1.836,2.055-3.244c0-1.979-1.606-3.59-3.58-3.59c-1.979,0-3.59,1.611-3.59,3.59
			c0,1.384,0.81,2.658,2.064,3.244c0.41,0.192,0.64,0.635,0.561,1.081c-0.079,0.446-0.447,0.783-0.898,0.821
			c-1.119,0.096-2.194,0.792-3.007,1.929c0.813,1.872,1.241,4.001,1.241,6.195v0.608c0.007,0.046,0.01,0.094,0.01,0.142V-213.66z"/>
	</g>
	<g>
		<path d="M-331.519-211.66h-12.12c-0.552,0-1-0.448-1-1l0.01-3.05c0-3.718,1.741-6.941,4.225-8.264
			c-0.929-1.014-1.475-2.357-1.475-3.776c0-3.083,2.508-5.59,5.59-5.59c3.077,0,5.58,2.508,5.58,5.59
			c0,1.417-0.542,2.76-1.465,3.772c1.115,0.587,2.103,1.563,2.85,2.844c0.166,0.285,0.181,0.634,0.039,0.932
			c-0.8,1.688-1.224,3.666-1.224,5.721v0.75c0,0.048-0.003,0.094-0.01,0.14v0.93C-330.519-212.108-330.967-211.66-331.519-211.66z
			 M-342.64-213.66h10.12v-0.07c0-0.048,0.003-0.094,0.01-0.14v-0.61c0-2.149,0.41-4.235,1.188-6.07
			c-0.833-1.215-1.943-1.956-3.102-2.053c-0.452-0.038-0.821-0.375-0.901-0.82c-0.08-0.446,0.15-0.89,0.561-1.082
			c1.267-0.593,2.054-1.836,2.054-3.244c0-1.979-1.606-3.59-3.58-3.59c-1.979,0-3.59,1.611-3.59,3.59
			c0,1.384,0.81,2.658,2.064,3.244c0.411,0.192,0.641,0.636,0.561,1.082c-0.08,0.446-0.45,0.783-0.902,0.82
			c-2.508,0.208-4.473,3.236-4.473,6.894L-342.64-213.66z"/>
	</g>
</g>
<g>
	<g>
		<path d="M-309.858-137.348c-0.002-0.266-0.004-0.515-0.004-0.787c0-6.377-3.614-11.595-8.179-11.971c2.366-1.109,4-3.515,4-6.307
			c0-3.842-3.119-6.961-6.961-6.961c-3.842,0-6.961,3.119-6.961,6.961c0,2.792,1.634,5.198,4,6.307
			c-4.565,0.376-8.179,5.594-8.179,11.971c0,0.272-0.003,0.521-0.004,0.787h-0.009v3.847h22.306v-3.847H-309.858z"/>
	</g>
	<g>
		<path d="M-297.163-138.894c-0.001-0.186-0.003-0.36-0.003-0.55c0-4.456-2.526-8.103-5.716-8.366
			c1.654-0.775,2.796-2.456,2.796-4.408c0-2.685-2.18-4.865-4.865-4.865c-2.685,0-4.865,2.18-4.865,4.865
			c0,1.951,1.142,3.633,2.796,4.408c-3.19,0.263-5.716,3.91-5.716,8.366c0,0.19-0.002,0.364-0.003,0.55h-0.006v2.688h15.589v-2.688
			H-297.163z"/>
	</g>
	<g>
		<path d="M-329.428-138.894c-0.001-0.186-0.003-0.36-0.003-0.55c0-4.456-2.526-8.103-5.716-8.366
			c1.654-0.775,2.796-2.456,2.796-4.408c0-2.685-2.18-4.865-4.865-4.865c-2.685,0-4.865,2.18-4.865,4.865
			c0,1.951,1.142,3.633,2.796,4.408c-3.19,0.263-5.716,3.91-5.716,8.366c0,0.19-0.002,0.364-0.003,0.55h-0.006v2.688h15.589v-2.688
			H-329.428z"/>
	</g>
</g>
<g>
	<path d="M-366.765-138.112c-0.002-0.269-0.005-0.52-0.005-0.795c0-6.44-3.65-11.71-8.26-12.09c2.39-1.12,4.04-3.55,4.04-6.37
		c0-3.88-3.15-7.03-7.03-7.03s-7.03,3.15-7.03,7.03c0,2.82,1.65,5.25,4.04,6.37c-4.61,0.38-8.26,5.65-8.26,12.09
		c0,0.275-0.003,0.526-0.005,0.795h-0.009v3.885h22.528v-3.885H-366.765z"/>
</g>
<g>
	<path fill="none" stroke="#000000" stroke-width="1.5" stroke-linecap="round" stroke-linejoin="round" stroke-miterlimit="10" d="
		M-367.366-214.108c-0.002-0.25-0.004-0.483-0.004-0.738c0-5.981-3.39-10.876-7.671-11.229c2.22-1.04,3.752-3.297,3.752-5.916
		c0-3.604-2.926-6.529-6.529-6.529s-6.529,2.926-6.529,6.529c0,2.619,1.532,4.876,3.752,5.916
		c-4.282,0.353-7.671,5.247-7.671,11.229c0,0.256-0.003,0.489-0.004,0.738h-0.009v3.608h20.923v-3.608H-367.366z"/>
</g>
<g>
	<g>
		<path d="M-213.979-165.855v8.18h7.13C-208.499-162.145-211.079-165.275-213.979-165.855z M-206.199-155.675h-7.78v8.23h8.99
			C-205.069-150.395-205.499-153.186-206.199-155.675z M-213.979-145.445v8.22h7.75c0.71-2.48,1.15-5.28,1.24-8.22H-213.979z
			 M-213.979-165.855v8.18h7.13C-208.499-162.145-211.079-165.275-213.979-165.855z M-206.199-155.675h-7.78v8.23h8.99
			C-205.069-150.395-205.499-153.186-206.199-155.675z M-213.979-145.445v8.22h7.75c0.71-2.48,1.15-5.28,1.24-8.22H-213.979z
			 M-213.979-135.225v8.08c2.88-0.58,5.44-3.66,7.09-8.08H-213.979z M-223.079-157.675h7.1v-8.18
			C-218.869-165.256-221.439-162.135-223.079-157.675z M-223.729-155.675c-0.7,2.49-1.13,5.28-1.21,8.23h8.96v-8.23H-223.729z
			 M-213.979-135.225v8.08c2.88-0.58,5.44-3.66,7.09-8.08H-213.979z M-223.039-135.225c1.64,4.41,4.2,7.49,7.06,8.08v-8.08H-223.039
			z M-202.999-145.445c-0.07,2.94-0.48,5.72-1.15,8.22h6.28c1.35-2.47,2.17-5.25,2.33-8.22H-202.999z M-232.119-155.675
			c-1.33,2.47-2.14,5.27-2.27,8.23h7.46c0.06-2.94,0.46-5.72,1.13-8.23H-232.119z M-206.199-155.675h-7.78v8.23h8.99
			C-205.069-150.395-205.499-153.186-206.199-155.675z M-223.729-155.675c-0.7,2.49-1.13,5.28-1.21,8.23h8.96v-8.23H-223.729z
			 M-230.879-157.675h5.67c1.03-2.99,2.45-5.5,4.13-7.29C-225.079-163.645-228.509-161.055-230.879-157.675z M-208.859-164.965
			c1.69,1.79,3.11,4.3,4.14,7.29h5.67C-201.429-161.055-204.859-163.645-208.859-164.965z M-213.979-165.855v8.18h7.13
			C-208.499-162.145-211.079-165.275-213.979-165.855z M-223.079-157.675h7.1v-8.18
			C-218.869-165.256-221.439-162.135-223.079-157.675z M-197.809-155.675h-6.32c0.67,2.51,1.07,5.29,1.13,8.23h7.46
			C-195.669-150.405-196.479-153.205-197.809-155.675z M-213.979-135.225v8.08c2.88-0.58,5.44-3.66,7.09-8.08H-213.979z
			 M-223.039-135.225c1.64,4.41,4.2,7.49,7.06,8.08v-8.08H-223.039z M-213.979-145.445v8.22h7.75c0.71-2.48,1.15-5.28,1.24-8.22
			H-213.979z M-224.939-145.445c0.09,2.94,0.53,5.74,1.24,8.22h7.72v-8.22H-224.939z M-225.159-135.225h-5.64
			c2.37,3.33,5.77,5.89,9.73,7.2C-222.739-129.795-224.139-132.275-225.159-135.225z M-226.929-145.445h-7.46
			c0.16,2.97,0.98,5.75,2.33,8.22h6.28C-226.449-139.725-226.859-142.506-226.929-145.445z M-204.769-135.225
			c-1.02,2.95-2.43,5.42-4.1,7.19c3.96-1.3,7.37-3.86,9.74-7.19H-204.769z M-213.979-135.225v8.08c2.88-0.58,5.44-3.66,7.09-8.08
			H-213.979z M-223.039-135.225c1.64,4.41,4.2,7.49,7.06,8.08v-8.08H-223.039z M-223.039-135.225c1.64,4.41,4.2,7.49,7.06,8.08
			v-8.08H-223.039z M-224.939-145.445c0.09,2.94,0.53,5.74,1.24,8.22h7.72v-8.22H-224.939z M-223.079-157.675h7.1v-8.18
			C-218.869-165.256-221.439-162.135-223.079-157.675z M-223.729-155.675c-0.7,2.49-1.13,5.28-1.21,8.23h8.96v-8.23H-223.729z
			 M-213.979-165.855v8.18h7.13C-208.499-162.145-211.079-165.275-213.979-165.855z M-206.199-155.675h-7.78v8.23h8.99
			C-205.069-150.395-205.499-153.186-206.199-155.675z M-213.979-145.445v8.22h7.75c0.71-2.48,1.15-5.28,1.24-8.22H-213.979z
			 M-213.979-135.225v8.08c2.88-0.58,5.44-3.66,7.09-8.08H-213.979z M-213.979-165.855v8.18h7.13
			C-208.499-162.145-211.079-165.275-213.979-165.855z M-206.199-155.675h-7.78v8.23h8.99
			C-205.069-150.395-205.499-153.186-206.199-155.675z M-213.979-145.445v8.22h7.75c0.71-2.48,1.15-5.28,1.24-8.22H-213.979z
			 M-213.979-135.225v8.08c2.88-0.58,5.44-3.66,7.09-8.08H-213.979z M-213.979-165.855v8.18h7.13
			C-208.499-162.145-211.079-165.275-213.979-165.855z M-206.199-155.675h-7.78v8.23h8.99
			C-205.069-150.395-205.499-153.186-206.199-155.675z"/>
	</g>
</g>
<g>
	<path d="M-174.406-237.02c-1.1,0-2,0.9-2,2v29.7c0,1.1,0.9,2,2,2h47.151c1.1,0,2-0.9,2-2v-29.7c0-1.1-0.9-2-2-2H-174.406z
		 M-133.3-234.32c1.1,0,1.237,0.478,0.305,1.062l-16.141,10.119c-0.932,0.584-2.457,0.584-3.389,0l-16.142-10.119
		c-0.932-0.584-0.795-1.062,0.305-1.062H-133.3z M-171.707-206.02c-1.1,0-2-0.9-2-2v-23.211c0-1.1,0.763-1.522,1.695-0.938
		l19.488,12.216c0.932,0.584,2.457,0.584,3.389,0l19.487-12.216c0.932-0.584,1.695-0.162,1.695,0.938v23.211c0,1.1-0.9,2-2,2
		H-171.707z"/>
</g>
<g>
	<g>
		<path d="M-127.715-163.495c1.1,0,1.229,0.465,0.287,1.032l-21.744,13.105c-0.942,0.568-2.484,0.568-3.426,0l-21.744-13.105
			c-0.942-0.568-0.813-1.032,0.287-1.032H-127.715z"/>
	</g>
	<g>
		<path d="M-126.968-159.243c0.942-0.568,1.713-0.133,1.713,0.967v26.48c0,1.1-0.9,2-2,2h-47.15c-1.1,0-2-0.9-2-2v-26.41
			c0-1.1,0.771-1.535,1.713-0.968l22.094,13.315c0.942,0.568,2.484,0.568,3.426,0L-126.968-159.243z"/>
	</g>
	<g>
		<path d="M-127.715-163.495c1.1,0,1.229,0.465,0.287,1.032l-21.744,13.105c-0.942,0.568-2.484,0.568-3.426,0l-21.744-13.105
			c-0.942-0.568-0.813-1.032,0.287-1.032H-127.715z"/>
	</g>
</g>
<g>
	<path d="M-84.403-237.919c-0.778-0.778-2.314-1.414-3.414-1.414h-15.23c-1.1,0-2,0.9-2,2v38.7c0,1.1,0.9,2,2,2h30.569
		c1.1,0,2-0.9,2-2v-23.361c0-1.1-0.636-2.636-1.414-3.414L-84.403-237.919z M-86.027-233.724c0-1.1,0.636-1.364,1.414-0.586
		l9.112,9.111c0.778,0.778,0.514,1.414-0.586,1.414h-7.94c-1.1,0-2-0.9-2-2V-233.724z M-100.349-199.334c-1.1,0-2-0.9-2-2v-33.3
		c0-1.1,0.9-2,2-2h9.622c1.1,0,2,0.9,2,2v11.548c0,1.1,0.9,2,2,2h11.549c1.1,0,2,0.9,2,2v17.751c0,1.1-0.9,2-2,2H-100.349z"/>
</g>
<g>
	<path d="M-34.84-158.048c-8.86,0-16.042,7.182-16.042,16.042c0,8.86,7.182,16.042,16.042,16.042s16.042-7.182,16.042-16.042
		C-18.798-150.865-25.98-158.048-34.84-158.048z M-25.257-142.871l-9.03,11.357c-0.304,0.379-0.802,0.379-1.107,0l-9.029-11.357
		c-0.304-0.379-0.156-0.791,0.331-0.791h2.822c0.486,0,0.659-0.194,0.659-0.68v-5.304c0-0.486,0.623-0.641,1.109-0.641h9.723
		c0.486,0,0.761,0.155,0.761,0.641v5.304c0,0.486,0.521,0.68,1.007,0.68h2.424C-25.101-143.662-24.953-143.25-25.257-142.871z"/>
</g>
<g>
	<g>
		<path d="M-34.76-201.964c-9.441,0-17.122-7.681-17.122-17.122s7.681-17.122,17.122-17.122c9.44,0,17.121,7.681,17.121,17.122
			S-25.319-201.964-34.76-201.964z M-34.76-234.207c-8.338,0-15.122,6.784-15.122,15.122s6.784,15.122,15.122,15.122
			s15.121-6.784,15.121-15.122S-26.422-234.207-34.76-234.207z"/>
	</g>
	<g>
		<g>
			<path d="M-34.76-207.256c-0.513,0-1-0.24-1.337-0.66l-9.077-11.417c-0.391-0.488-0.484-1.109-0.24-1.618
				c0.24-0.501,0.747-0.8,1.355-0.8h2.495l0.003-5.014c0-0.983,0.85-1.644,2.114-1.644h9.772c1.301,0,1.765,0.849,1.765,1.644v5.014
				c0.004,0,0.008,0,0.012,0h2.436c0.608,0,1.115,0.299,1.355,0.8c0.244,0.509,0.15,1.13-0.243,1.622l-9.071,11.41
				C-33.761-207.496-34.248-207.256-34.76-207.256z M-42.95-219.75l8.19,10.301l8.189-10.301h-1.327
				c-1.185,0-2.012-0.692-2.012-1.684v-4.969l-9.537-0.005c-0.041,0-0.079,0.002-0.114,0.005v4.969c0,1.054-0.621,1.684-1.662,1.684
				H-42.95z"/>
		</g>
	</g>
</g>
<g>
	<path fill="#C45053" d="M162.94-232.625v34.75c0,1.65-1.35,3-3,3h-30c-1.65,0-3-1.35-3-3v-41.25c0-1.65,1.35-3,3-3h23.5
		L162.94-232.625z"/>
	<polygon fill="#BD3B3E" points="154.047,-233.19 162.941,-224.297 162.94,-232.625 	"/>
	<path fill="#FFFFFF" d="M162.94-232.625h-7.5c-1.11,0-2-0.89-2-2v-7.5L162.94-232.625z"/>
	<line fill="none" x1="162.941" y1="-232.625" x2="153.441" y2="-242.125"/>
	<g>
		<path fill="#FFFFFF" d="M135.834-221.747h2.654c0.39,0,0.737,0.054,1.043,0.162c0.306,0.108,0.566,0.261,0.779,0.459
			c0.214,0.198,0.378,0.435,0.492,0.71c0.115,0.276,0.172,0.58,0.172,0.914v0.018c0,0.378-0.068,0.709-0.205,0.993
			c-0.136,0.285-0.323,0.523-0.561,0.714c-0.238,0.192-0.516,0.336-0.835,0.431s-0.66,0.144-1.025,0.144h-1.085v1.948h-1.429
			V-221.747z M138.395-218.473c0.359,0,0.636-0.094,0.835-0.283c0.198-0.189,0.297-0.422,0.297-0.701v-0.018
			c0-0.322-0.103-0.566-0.311-0.733c-0.207-0.167-0.49-0.25-0.849-0.25h-1.104v1.985H138.395z"/>
		<path fill="#FFFFFF" d="M142.031-221.747h2.533c0.513,0,0.98,0.082,1.401,0.246c0.421,0.164,0.784,0.391,1.09,0.682
			c0.307,0.291,0.543,0.633,0.71,1.025c0.167,0.393,0.251,0.818,0.251,1.276v0.018c0,0.458-0.084,0.885-0.251,1.281
			c-0.167,0.396-0.403,0.739-0.71,1.03c-0.306,0.291-0.67,0.519-1.09,0.686c-0.421,0.167-0.887,0.251-1.401,0.251h-2.533V-221.747z
			 M144.565-216.543c0.291,0,0.556-0.046,0.798-0.139c0.241-0.092,0.448-0.226,0.621-0.399c0.173-0.173,0.306-0.379,0.399-0.617
			c0.093-0.238,0.14-0.499,0.14-0.784v-0.019c0-0.291-0.047-0.555-0.14-0.793c-0.093-0.238-0.226-0.444-0.399-0.617
			c-0.174-0.173-0.381-0.308-0.621-0.404c-0.242-0.096-0.507-0.144-0.798-0.144h-1.104v3.915H144.565z"/>
		<path fill="#FFFFFF" d="M149.101-221.747h4.945v1.299h-3.516v1.382h3.099v1.299h-3.099v2.514h-1.429V-221.747z"/>
	</g>
</g>
<g>
	<path fill="#2980B9" d="M214.607-233.542v34.75c0,1.65-1.35,3-3,3h-30c-1.65,0-3-1.35-3-3v-41.25c0-1.65,1.35-3,3-3h23.5
		L214.607-233.542z"/>
	<polygon fill="#1B6D9B" points="205.713,-234.107 214.607,-225.214 214.607,-233.542 	"/>
	<path fill="#FFFFFF" d="M214.607-233.542h-7.5c-1.11,0-2-0.89-2-2v-7.5L214.607-233.542z"/>
	<line fill="none" x1="214.607" y1="-233.542" x2="205.107" y2="-243.042"/>
	<g>
		<path fill="#FFFFFF" d="M203.54-224.505v0.271c-0.26,0-0.47,0.047-0.631,0.14s-0.315,0.267-0.462,0.521
			c-0.099,0.171-0.253,0.58-0.463,1.225l-2.773,8.019h-0.293l-2.268-6.361l-2.252,6.361h-0.264l-2.957-8.261
			c-0.22-0.616-0.359-0.98-0.418-1.093c-0.099-0.186-0.231-0.324-0.4-0.415c-0.169-0.09-0.397-0.136-0.686-0.136v-0.271h3.683v0.271
			h-0.176c-0.26,0-0.457,0.059-0.595,0.176c-0.137,0.117-0.205,0.259-0.205,0.426c0,0.171,0.107,0.564,0.323,1.181l1.958,5.583
			l1.651-4.747l-0.294-0.836l-0.234-0.668c-0.103-0.244-0.218-0.459-0.345-0.646c-0.063-0.093-0.142-0.171-0.235-0.235
			c-0.122-0.088-0.244-0.151-0.366-0.19c-0.093-0.03-0.24-0.044-0.44-0.044v-0.271h3.874v0.271h-0.265
			c-0.273,0-0.475,0.059-0.602,0.176s-0.19,0.276-0.19,0.477c0,0.25,0.11,0.685,0.33,1.306l1.907,5.407l1.894-5.48
			c0.215-0.606,0.322-1.027,0.322-1.262c0-0.113-0.035-0.218-0.106-0.316c-0.07-0.098-0.16-0.166-0.268-0.205
			c-0.186-0.068-0.428-0.103-0.727-0.103v-0.271H203.54z"/>
	</g>
</g>
<g>
	<path fill="#85C56C" d="M317.94-233.542v34.75c0,1.65-1.35,3-3,3h-30c-1.65,0-3-1.35-3-3v-41.25c0-1.65,1.35-3,3-3h23.5
		L317.94-233.542z"/>
	<polygon fill="#63B244" points="309.047,-234.107 317.941,-225.214 317.94,-233.542 	"/>
	<path fill="#FFFFFF" d="M317.94-233.542h-7.5c-1.11,0-2-0.89-2-2v-7.5L317.94-233.542z"/>
	<line fill="none" x1="317.941" y1="-233.542" x2="308.441" y2="-243.042"/>
	<g>
		<path fill="#FFFFFF" d="M300.707-219.971l2.208,3.294c0.612,0.911,1.066,1.486,1.362,1.727c0.296,0.24,0.672,0.373,1.127,0.398
			v0.281h-4.417v-0.281c0.293-0.005,0.511-0.035,0.653-0.091c0.106-0.046,0.194-0.115,0.262-0.209
			c0.068-0.094,0.102-0.188,0.102-0.285c0-0.116-0.023-0.233-0.068-0.349c-0.035-0.086-0.175-0.309-0.417-0.668l-1.746-2.641
			l-2.155,2.762c-0.228,0.293-0.364,0.49-0.41,0.588s-0.068,0.201-0.068,0.307c0,0.162,0.068,0.296,0.205,0.402
			c0.137,0.106,0.397,0.167,0.782,0.182v0.281h-3.65v-0.281c0.258-0.025,0.481-0.078,0.668-0.159
			c0.314-0.132,0.612-0.309,0.896-0.531c0.283-0.223,0.607-0.564,0.971-1.025l2.429-3.066l-2.026-2.967
			c-0.551-0.804-1.02-1.332-1.404-1.582s-0.827-0.383-1.328-0.398v-0.281h4.758v0.281c-0.405,0.015-0.682,0.081-0.831,0.197
			c-0.149,0.116-0.224,0.245-0.224,0.387c0,0.187,0.121,0.46,0.364,0.82l1.579,2.36l1.829-2.315c0.212-0.273,0.343-0.46,0.391-0.562
			c0.048-0.101,0.072-0.205,0.072-0.311s-0.03-0.2-0.091-0.281c-0.076-0.106-0.172-0.181-0.288-0.224s-0.357-0.067-0.721-0.072
			v-0.281h3.65v0.281c-0.288,0.015-0.524,0.061-0.706,0.137c-0.273,0.116-0.524,0.273-0.751,0.471
			c-0.228,0.197-0.549,0.562-0.964,1.093L300.707-219.971z"/>
	</g>
</g>
<g>
	<path fill="#DC5900" d="M266.274-233.542v34.75c0,1.65-1.35,3-3,3h-30c-1.65,0-3-1.35-3-3v-41.25c0-1.65,1.35-3,3-3h23.5
		L266.274-233.542z"/>
	<polygon fill="#CF3E20" points="257.38,-234.107 266.274,-225.214 266.274,-233.542 	"/>
	<path fill="#FFFFFF" d="M266.274-233.542h-7.5c-1.11,0-2-0.89-2-2v-7.5L266.274-233.542z"/>
	<line fill="none" x1="266.274" y1="-233.542" x2="256.774" y2="-243.042"/>
	<g>
		<path fill="#FFFFFF" d="M247.294-219.095v2.964c0,0.64,0.07,1.038,0.21,1.193c0.19,0.22,0.478,0.33,0.863,0.33h0.39v0.278h-4.36
			v-0.278h0.383c0.43,0,0.738-0.14,0.923-0.42c0.1-0.155,0.15-0.523,0.15-1.103v-6.574c0-0.64-0.068-1.038-0.203-1.193
			c-0.195-0.22-0.485-0.33-0.871-0.33h-0.383v-0.278h3.73c0.911,0,1.629,0.094,2.154,0.281c0.525,0.188,0.968,0.504,1.328,0.949
			c0.36,0.445,0.54,0.973,0.54,1.583c0,0.831-0.274,1.506-0.822,2.026c-0.548,0.52-1.322,0.78-2.323,0.78
			c-0.245,0-0.51-0.018-0.795-0.053S247.62-219.025,247.294-219.095z M247.294-219.522c0.265,0.05,0.5,0.088,0.705,0.113
			c0.205,0.025,0.38,0.038,0.525,0.038c0.52,0,0.969-0.201,1.347-0.604c0.378-0.403,0.567-0.924,0.567-1.565
			c0-0.44-0.09-0.849-0.27-1.227c-0.18-0.378-0.435-0.66-0.765-0.848c-0.33-0.188-0.705-0.281-1.126-0.281
			c-0.255,0-0.583,0.048-0.983,0.143V-219.522z"/>
	</g>
</g>
<g>
	<g>
		<path d="M152.935-47.766c-15.298,0-27.745-12.446-27.745-27.745s12.446-27.745,27.745-27.745
			c15.299,0,27.745,12.446,27.745,27.745S168.233-47.766,152.935-47.766z M152.935-99.323c-13.13,0-23.812,10.682-23.812,23.812
			s10.682,23.812,23.812,23.812c13.13,0,23.813-10.682,23.813-23.812S166.065-99.323,152.935-99.323z"/>
	</g>
	<g>
		<path d="M143.373-87.304c0-0.901,0.653-1.297,1.452-0.879l22.773,11.913c0.799,0.418,0.799,1.101,0,1.519l-22.773,11.913
			c-0.799,0.418-1.452,0.022-1.452-0.879V-87.304z"/>
	</g>
</g>
<g>
	<path d="M222.02-47.766c-15.298,0-27.745-12.446-27.745-27.745s12.446-27.745,27.745-27.745c15.299,0,27.745,12.446,27.745,27.745
		S237.319-47.766,222.02-47.766z M222.02-99.323c-13.13,0-23.812,10.682-23.812,23.812s10.682,23.812,23.812,23.812
		c13.13,0,23.813-10.682,23.813-23.812S235.151-99.323,222.02-99.323z"/>
</g>
<polygon points="-371.897,33.878 -366.756,28.736 -378.597,16.895 -366.756,5.053 -371.897,-0.089 -388.881,16.895 "/>
<polygon points="-327.79,-0.089 -332.932,5.053 -321.09,16.895 -332.932,28.736 -327.79,33.878 -310.806,16.895 "/>
<polygon points="-248.936,10.974 -254.078,5.832 -265.92,17.674 -277.761,5.832 -282.903,10.974 -265.92,27.957 "/>
<polygon points="-226.954,22.816 -221.812,27.957 -209.97,16.116 -198.128,27.957 -192.987,22.816 -209.97,5.832 "/>
<polygon fill="none" stroke="#000000" stroke-width="2" stroke-linecap="round" stroke-linejoin="round" stroke-miterlimit="10" points="
	-372.256,-34.015 -367.425,-38.845 -378.55,-49.971 -367.425,-61.096 -372.256,-65.926 -388.212,-49.971 "/>
<polygon fill="none" stroke="#000000" stroke-width="2" stroke-linecap="round" stroke-linejoin="round" stroke-miterlimit="10" points="
	-325.792,-65.926 -330.623,-61.096 -319.498,-49.971 -330.623,-38.845 -325.792,-34.015 -309.836,-49.971 "/>
<polygon fill="none" stroke="#000000" stroke-width="2" stroke-linecap="round" stroke-linejoin="round" stroke-miterlimit="10" points="
	-249.964,-55.533 -254.794,-60.364 -265.92,-49.239 -277.045,-60.364 -281.875,-55.533 -265.92,-39.577 "/>
<polygon fill="none" stroke="#000000" stroke-width="2" stroke-linecap="round" stroke-linejoin="round" stroke-miterlimit="10" points="
	-224.898,-44.408 -220.067,-39.577 -208.942,-50.702 -197.817,-39.577 -192.987,-44.408 -208.942,-60.364 "/>
<rect x="106.521" y="-260.335" fill="none" stroke="#000000" stroke-width="2" stroke-linecap="round" stroke-linejoin="round" stroke-miterlimit="10" width="231" height="87"/>
<text transform="matrix(1 0 0 1 190.3215 -264.3354)" font-family="'Helvetica-Narrow-Bold'" font-size="12">Documents</text>
<rect x="106.521" y="-119.01" fill="none" stroke="#000000" stroke-width="2" stroke-linecap="round" stroke-linejoin="round" stroke-miterlimit="10" width="231" height="94.675"/>
<text transform="matrix(1 0 0 1 206.7102 -123.0105)" font-family="'Helvetica-Narrow-Bold'" font-size="12">VIDEO</text>
<rect x="-407.406" y="-260.335" fill="none" stroke="#000000" stroke-width="2" stroke-linecap="round" stroke-linejoin="round" stroke-miterlimit="10" width="455.927" height="329"/>
<text transform="matrix(1 0 0 1 -213.9186 -264.3354)" font-family="'Helvetica-Narrow-Bold'" font-size="12">WEB</text>
<text transform="matrix(1 0 0 1 134.5485 -185.0023)" font-family="'Helvetica-Narrow'" font-size="6">pdfDoc_c</text>
<text transform="matrix(1 0 0 1 146.3688 -39.5771)" font-family="'Helvetica-Narrow'" font-size="6">play_f</text>
<text transform="matrix(1 0 0 1 213.2643 -39.5771)" font-family="'Helvetica-Narrow'" font-size="6">pause_f</text>
<text transform="matrix(1 0 0 1 184.304 -185.0023)" font-family="'Helvetica-Narrow'" font-size="6">wordDoc_c</text>
<text transform="matrix(1 0 0 1 237.8808 -185.0023)" font-family="'Helvetica-Narrow'" font-size="6">pptDoc_c</text>
<text transform="matrix(1 0 0 1 287.2223 -184.6688)" font-family="'Helvetica-Narrow'" font-size="6">excelDoc_c</text>
<text transform="matrix(1 0 0 1 -387.4559 -185.0023)" font-family="'Helvetica-Narrow'" font-size="6">person_l</text>
<text transform="matrix(1 0 0 1 -329.2854 -185.0023)" font-family="'Helvetica-Narrow'" font-size="6">group_l</text>
<text transform="matrix(1 0 0 1 -272.9065 -185.0023)" font-family="'Helvetica-Narrow'" font-size="6">phone_l</text>
<text transform="matrix(1 0 0 1 -221.3928 -184.6688)" font-family="'Helvetica-Narrow'" font-size="6">web_l</text>
<text transform="matrix(1 0 0 1 -389.4374 -19.5023)" font-family="'Helvetica-Narrow'" font-size="6">leftArrow_l</text>
<text transform="matrix(1 0 0 1 -333.3518 -19.5023)" font-family="'Helvetica-Narrow'" font-size="6">rightArrow_l</text>
<text transform="matrix(1 0 0 1 -280.1362 -19.5023)" font-family="'Helvetica-Narrow'" font-size="6">downArrow_l</text>
<text transform="matrix(1 0 0 1 -220.0153 -19.1688)" font-family="'Helvetica-Narrow'" font-size="6">upArrow_l</text>
<text transform="matrix(1 0 0 1 -161.2088 -19.1688)" font-family="'Helvetica-Narrow'" font-size="6">listView_l</text>
<text transform="matrix(1 0 0 1 -109.8189 -19.1688)" font-family="'Helvetica-Narrow'" font-size="6">gridView_l</text>
<text transform="matrix(1 0 0 1 -161.3474 47.4979)" font-family="'Helvetica-Narrow'" font-size="6">listView_f</text>
<text transform="matrix(1 0 0 1 -109.9566 47.4979)" font-family="'Helvetica-Narrow'" font-size="6">gridView_f</text>
<text transform="matrix(1 0 0 1 -389.5751 47.4977)" font-family="'Helvetica-Narrow'" font-size="6">leftArrow_f</text>
<text transform="matrix(1 0 0 1 -333.4895 47.4977)" font-family="'Helvetica-Narrow'" font-size="6">rightArrow_f</text>
<text transform="matrix(1 0 0 1 -280.2729 47.4977)" font-family="'Helvetica-Narrow'" font-size="6">downArrow_f</text>
<text transform="matrix(1 0 0 1 -220.154 47.8312)" font-family="'Helvetica-Narrow'" font-size="6">upArrow_f</text>
<text transform="matrix(1 0 0 1 -157.2549 -184.6688)" font-family="'Helvetica-Narrow'" font-size="6">mail_l</text>
<text transform="matrix(1 0 0 1 -93.6441 -184.6688)" font-family="'Helvetica-Narrow'" font-size="6">doc_l</text>
<text transform="matrix(1 0 0 1 -47.2052 -184.6688)" font-family="'Helvetica-Narrow'" font-size="6">download_l</text>
<g>
	<path d="M14.168-125.964c8.86,0,16.042-7.182,16.042-16.042c0-8.86-7.182-16.042-16.042-16.042s-16.042,7.182-16.042,16.042
		C-1.874-133.146,5.308-125.964,14.168-125.964z M4.585-141.141l9.03-11.357c0.304-0.379,0.802-0.379,1.107,0l9.029,11.357
		c0.304,0.379,0.156,0.791-0.331,0.791h-2.822c-0.486,0-0.659,0.194-0.659,0.68v5.304c0,0.486-0.623,0.641-1.109,0.641H9.107
		c-0.486,0-0.761-0.155-0.761-0.641v-5.304c0-0.486-0.521-0.68-1.007-0.68H4.915C4.429-140.35,4.281-140.762,4.585-141.141z"/>
</g>
<g>
	<g>
		<path d="M14.247-236.207c9.441,0,17.122,7.681,17.122,17.122s-7.681,17.122-17.122,17.122c-9.44,0-17.121-7.681-17.121-17.122
			S4.806-236.207,14.247-236.207z M14.247-203.964c8.338,0,15.122-6.784,15.122-15.122s-6.784-15.122-15.122-15.122
			s-15.121,6.784-15.121,15.122S5.909-203.964,14.247-203.964z"/>
	</g>
	<g>
		<g>
			<path d="M14.247-230.915c0.513,0,1,0.24,1.337,0.66l9.077,11.417c0.391,0.488,0.484,1.109,0.24,1.618
				c-0.24,0.501-0.747,0.8-1.355,0.8h-2.495l-0.003,5.014c0,0.983-0.85,1.644-2.114,1.644H9.161c-1.301,0-1.765-0.849-1.765-1.644
				v-5.014c-0.004,0-0.008,0-0.012,0H4.949c-0.608,0-1.115-0.299-1.355-0.8c-0.244-0.509-0.15-1.13,0.243-1.622l9.071-11.41
				C13.248-230.675,13.735-230.915,14.247-230.915z M22.437-218.421l-8.19-10.301l-8.189,10.301h1.327
				c1.185,0,2.012,0.692,2.012,1.684v4.969l9.537,0.005c0.041,0,0.079-0.002,0.114-0.005v-4.969c0-1.054,0.621-1.684,1.662-1.684
				H22.437z"/>
		</g>
	</g>
</g>
<text transform="matrix(1 0 0 1 4.9455 -184.6688)" font-family="'Helvetica-Narrow'" font-size="6">upload_l</text>
<text transform="matrix(1 0 0 1 -387.5936 -111.3354)" font-family="'Helvetica-Narrow'" font-size="6">person_f</text>
<text transform="matrix(1 0 0 1 -329.4231 -111.3354)" font-family="'Helvetica-Narrow'" font-size="6">group_f</text>
<text transform="matrix(1 0 0 1 -273.0432 -111.3354)" font-family="'Helvetica-Narrow'" font-size="6">phone_f</text>
<text transform="matrix(1 0 0 1 -221.5315 -111.002)" font-family="'Helvetica-Narrow'" font-size="6">web_f</text>
<text transform="matrix(1 0 0 1 -157.3926 -111.002)" font-family="'Helvetica-Narrow'" font-size="6">mail_f</text>
<text transform="matrix(1 0 0 1 -93.7828 -111.002)" font-family="'Helvetica-Narrow'" font-size="6">doc_f</text>
<text transform="matrix(1 0 0 1 -47.3429 -111.002)" font-family="'Helvetica-Narrow'" font-size="6">download_f</text>
<text transform="matrix(1 0 0 1 4.8078 -111.002)" font-family="'Helvetica-Narrow'" font-size="6">upload_f</text>
<g>
	
		<rect x="-491.406" y="-260.335" fill="none" stroke="#000000" stroke-width="2" stroke-linecap="round" stroke-linejoin="round" stroke-miterlimit="10" width="57.177" height="67"/>
	<text transform="matrix(1 0 0 1 -472.931 -264.3354)" font-family="'Helvetica-Narrow-Bold'" font-size="12">KEY</text>
	<text transform="matrix(1 0 0 1 -485.3211 -243.1441)"><tspan x="0" y="0" font-family="'Helvetica-Narrow'" font-size="12">_l</tspan><tspan x="0" y="22" font-family="'Helvetica-Narrow'" font-size="12">_f</tspan><tspan x="0" y="44" font-family="'Helvetica-Narrow'" font-size="12">_c</tspan></text>
	<text transform="matrix(1 0 0 1 -462.9044 -243.1441)"><tspan x="0" y="0" font-family="'Helvetica-Narrow'" font-size="12">line</tspan><tspan x="0" y="22" font-family="'Helvetica-Narrow'" font-size="12">fill</tspan><tspan x="0" y="44" font-family="'Helvetica-Narrow'" font-size="12">color</tspan></text>
	<line fill="none" stroke="#000000" stroke-miterlimit="10" x1="-491.406" y1="-238.585" x2="-434.479" y2="-238.585"/>
	<line fill="none" stroke="#000000" stroke-miterlimit="10" x1="-491.406" y1="-216.835" x2="-434.479" y2="-216.835"/>
	<line fill="none" stroke="#000000" stroke-miterlimit="10" x1="-469.729" y1="-260.169" x2="-469.729" y2="-193.335"/>
</g>
<line fill="none" stroke="#000000" stroke-miterlimit="10" x1="-407.406" y1="-91.335" x2="48.521" y2="-91.335"/>
<g>
	<path d="M219.723-62.316c0,0.55-0.45,1-1,1h-5.733c-0.55,0-1-0.45-1-1v-26.389c0-0.55,0.45-1,1-1h5.733c0.55,0,1,0.45,1,1V-62.316z
		"/>
	<path d="M232.051-62.316c0,0.55-0.45,1-1,1h-5.733c-0.55,0-1-0.45-1-1v-26.389c0-0.55,0.45-1,1-1h5.733c0.55,0,1,0.45,1,1V-62.316z
		"/>
</g>
<g>
	<g>
		<g>
			<path d="M-138.883,8.727h-17.681c-1.075,0-1.944-0.871-1.944-1.944s0.87-1.944,1.944-1.944h17.681
				c1.075,0,1.944,0.871,1.944,1.944S-137.808,8.727-138.883,8.727z"/>
		</g>
		<circle cx="-163.029" cy="6.782" r="1.944"/>
	</g>
	<g>
		<g>
			<path d="M-138.883,15.468h-17.681c-1.075,0-1.944-0.871-1.944-1.944s0.87-1.944,1.944-1.944h17.681
				c1.075,0,1.944,0.871,1.944,1.944S-137.808,15.468-138.883,15.468z"/>
		</g>
		<circle cx="-163.029" cy="13.524" r="1.944"/>
	</g>
	<g>
		<g>
			<path d="M-138.883,22.21h-17.681c-1.075,0-1.944-0.871-1.944-1.944s0.87-1.944,1.944-1.944h17.681
				c1.075,0,1.944,0.871,1.944,1.944S-137.808,22.21-138.883,22.21z"/>
		</g>
		<circle cx="-163.029" cy="20.265" r="1.944"/>
	</g>
	<g>
		<circle cx="-163.029" cy="27.007" r="1.944"/>
		<g>
			<path d="M-138.883,28.951h-17.681c-1.075,0-1.944-0.871-1.944-1.944c0-1.074,0.87-1.944,1.944-1.944h17.681
				c1.075,0,1.944,0.871,1.944,1.944C-136.939,28.081-137.808,28.951-138.883,28.951z"/>
		</g>
	</g>
</g>
<g>
	<g>
		<g>
			<path d="M-138.883-61.027c0.521,0,0.944,0.424,0.944,0.944s-0.424,0.944-0.944,0.944h-17.681c-0.521,0-0.944-0.424-0.944-0.944
				s0.424-0.944,0.944-0.944H-138.883 M-138.883-62.027h-17.681c-1.075,0-1.944,0.871-1.944,1.944c0,1.074,0.87,1.944,1.944,1.944
				h17.681c1.075,0,1.944-0.871,1.944-1.944C-136.939-61.157-137.808-62.027-138.883-62.027L-138.883-62.027z"/>
		</g>
		<path d="M-163.029-61.027c0.521,0,0.944,0.424,0.944,0.944s-0.424,0.944-0.944,0.944s-0.944-0.424-0.944-0.944
			S-163.55-61.027-163.029-61.027 M-163.029-62.027c-1.074,0-1.944,0.871-1.944,1.944c0,1.074,0.871,1.944,1.944,1.944
			c1.074,0,1.944-0.871,1.944-1.944C-161.084-61.157-161.955-62.027-163.029-62.027L-163.029-62.027z"/>
	</g>
	<g>
		<g>
			<path d="M-138.883-54.286c0.521,0,0.944,0.424,0.944,0.944s-0.424,0.944-0.944,0.944h-17.681c-0.521,0-0.944-0.424-0.944-0.944
				s0.424-0.944,0.944-0.944H-138.883 M-138.883-55.286h-17.681c-1.075,0-1.944,0.871-1.944,1.944s0.87,1.944,1.944,1.944h17.681
				c1.075,0,1.944-0.871,1.944-1.944S-137.808-55.286-138.883-55.286L-138.883-55.286z"/>
		</g>
		<path d="M-163.029-54.286c0.521,0,0.944,0.424,0.944,0.944s-0.424,0.944-0.944,0.944s-0.944-0.424-0.944-0.944
			S-163.55-54.286-163.029-54.286 M-163.029-55.286c-1.074,0-1.944,0.871-1.944,1.944s0.871,1.944,1.944,1.944
			c1.074,0,1.944-0.871,1.944-1.944S-161.955-55.286-163.029-55.286L-163.029-55.286z"/>
	</g>
	<g>
		<g>
			<path d="M-138.883-47.544c0.521,0,0.944,0.424,0.944,0.944s-0.424,0.944-0.944,0.944h-17.681c-0.521,0-0.944-0.424-0.944-0.944
				s0.424-0.944,0.944-0.944H-138.883 M-138.883-48.544h-17.681c-1.075,0-1.944,0.871-1.944,1.944c0,1.074,0.87,1.944,1.944,1.944
				h17.681c1.075,0,1.944-0.871,1.944-1.944C-136.939-47.674-137.808-48.544-138.883-48.544L-138.883-48.544z"/>
		</g>
		<path d="M-163.029-47.544c0.521,0,0.944,0.424,0.944,0.944s-0.424,0.944-0.944,0.944s-0.944-0.424-0.944-0.944
			S-163.55-47.544-163.029-47.544 M-163.029-48.544c-1.074,0-1.944,0.871-1.944,1.944c0,1.074,0.871,1.944,1.944,1.944
			c1.074,0,1.944-0.871,1.944-1.944C-161.084-47.674-161.955-48.544-163.029-48.544L-163.029-48.544z"/>
	</g>
	<g>
		<path d="M-163.029-40.803c0.521,0,0.944,0.424,0.944,0.944s-0.424,0.944-0.944,0.944s-0.944-0.424-0.944-0.944
			S-163.55-40.803-163.029-40.803 M-163.029-41.803c-1.074,0-1.944,0.871-1.944,1.944c0,1.074,0.871,1.944,1.944,1.944
			c1.074,0,1.944-0.871,1.944-1.944C-161.084-40.932-161.955-41.803-163.029-41.803L-163.029-41.803z"/>
		<g>
			<path d="M-138.883-40.803c0.521,0,0.944,0.424,0.944,0.944s-0.424,0.944-0.944,0.944h-17.681c-0.521,0-0.944-0.424-0.944-0.944
				s0.424-0.944,0.944-0.944H-138.883 M-138.883-41.803h-17.681c-1.075,0-1.944,0.871-1.944,1.944c0,1.074,0.87,1.944,1.944,1.944
				h17.681c1.075,0,1.944-0.871,1.944-1.944C-136.939-40.932-137.808-41.803-138.883-41.803L-138.883-41.803z"/>
		</g>
	</g>
</g>
<g>
	<path d="M-99.678,13.689c0,1.1-0.9,2-2,2h-6.851c-1.1,0-2-0.9-2-2V6.838c0-1.1,0.9-2,2-2h6.851c1.1,0,2,0.9,2,2V13.689z"/>
	<path d="M-86.415,13.689c0,1.1-0.9,2-2,2h-6.851c-1.1,0-2-0.9-2-2V6.838c0-1.1,0.9-2,2-2h6.851c1.1,0,2,0.9,2,2V13.689z"/>
	<path d="M-86.415,26.952c0,1.1-0.9,2-2,2h-6.851c-1.1,0-2-0.9-2-2V20.1c0-1.1,0.9-2,2-2h6.851c1.1,0,2,0.9,2,2V26.952z"/>
	<path d="M-99.678,26.952c0,1.1-0.9,2-2,2h-6.851c-1.1,0-2-0.9-2-2V20.1c0-1.1,0.9-2,2-2h6.851c1.1,0,2,0.9,2,2V26.952z"/>
</g>
<g>
	<path d="M-101.678-61.028c0.551,0,1,0.449,1,1v6.851c0,0.551-0.449,1-1,1h-6.851c-0.551,0-1-0.449-1-1v-6.851c0-0.551,0.449-1,1-1
		H-101.678 M-101.678-62.028h-6.851c-1.1,0-2,0.9-2,2v6.851c0,1.1,0.9,2,2,2h6.851c1.1,0,2-0.9,2-2v-6.851
		C-99.678-61.128-100.578-62.028-101.678-62.028L-101.678-62.028z"/>
	<path d="M-88.415-61.028c0.551,0,1,0.449,1,1v6.851c0,0.551-0.449,1-1,1h-6.851c-0.551,0-1-0.449-1-1v-6.851c0-0.551,0.449-1,1-1
		H-88.415 M-88.415-62.028h-6.851c-1.1,0-2,0.9-2,2v6.851c0,1.1,0.9,2,2,2h6.851c1.1,0,2-0.9,2-2v-6.851
		C-86.415-61.128-87.315-62.028-88.415-62.028L-88.415-62.028z"/>
	<path d="M-88.415-47.765c0.551,0,1,0.449,1,1v6.851c0,0.551-0.449,1-1,1h-6.851c-0.551,0-1-0.449-1-1v-6.851c0-0.551,0.449-1,1-1
		H-88.415 M-88.415-48.765h-6.851c-1.1,0-2,0.9-2,2v6.851c0,1.1,0.9,2,2,2h6.851c1.1,0,2-0.9,2-2v-6.851
		C-86.415-47.865-87.315-48.765-88.415-48.765L-88.415-48.765z"/>
	<path d="M-101.678-47.765c0.551,0,1,0.449,1,1v6.851c0,0.551-0.449,1-1,1h-6.851c-0.551,0-1-0.449-1-1v-6.851c0-0.551,0.449-1,1-1
		H-101.678 M-101.678-48.765h-6.851c-1.1,0-2,0.9-2,2v6.851c0,1.1,0.9,2,2,2h6.851c1.1,0,2-0.9,2-2v-6.851
		C-99.678-47.865-100.578-48.765-101.678-48.765L-101.678-48.765z"/>
</g>
<path d="M18.923,18.923c-3.426,3.426-8.981,3.424-12.405,0c-3.428-3.426-3.428-8.981,0-12.405c3.424-3.426,8.978-3.428,12.405,0
	C22.347,9.942,22.347,15.497,18.923,18.923 M23.471,19.504c3.108-4.915,2.527-11.492-1.757-15.779
	c-4.969-4.967-13.019-4.967-17.988,0c-4.967,4.967-4.967,13.024,0,17.986C8.007,26,14.587,26.579,19.502,23.471l10.346,10.319
	l3.969-3.969L23.471,19.504z"/>
</svg>
