<?xml version="1.0" encoding="utf-8"?>
<!-- Generator: Adobe Illustrator 22.1.0, SVG Export Plug-In . SVG Version: 6.00 Build 0)  -->
<svg version="1.1" id="Background" xmlns="http://www.w3.org/2000/svg" xmlns:xlink="http://www.w3.org/1999/xlink" x="0px" y="0px"
	 viewBox="0 0 245 245.1" enable-background="new 0 0 245 245.1" xml:space="preserve">
<g>
	<g>
		<path fill="#D93175" d="M244.14,73.337c-0.597-13.079-2.674-22.011-5.712-29.828c-3.14-8.08-7.342-14.933-14.173-21.764
			c-6.831-6.831-13.684-11.033-21.764-14.173c-7.816-3.038-16.749-5.115-29.828-5.712C159.557,1.262,155.372,1.121,122,1.121
			S84.443,1.262,71.337,1.86C58.258,2.457,49.326,4.534,41.509,7.572c-8.08,3.14-14.933,7.342-21.764,14.173
			C12.913,28.576,8.712,35.429,5.572,43.509C2.534,51.326,0.457,60.258-0.14,73.337C-0.738,86.443-0.879,90.628-0.879,124
			c0,33.372,0.141,37.557,0.739,50.663c0.597,13.079,2.674,22.011,5.712,29.828c3.14,8.08,7.342,14.933,14.173,21.764
			c6.831,6.831,13.684,11.033,21.764,14.173c7.816,3.038,16.749,5.115,29.828,5.712c13.106,0.598,17.291,0.739,50.663,0.739
			s37.557-0.141,50.663-0.739c13.079-0.597,22.011-2.674,29.828-5.712c8.08-3.14,14.933-7.342,21.764-14.173
			c6.831-6.831,11.033-13.684,14.173-21.764c3.038-7.816,5.115-16.749,5.712-29.828c0.598-13.106,0.739-17.291,0.739-50.663
			C244.879,90.628,244.738,86.443,244.14,73.337z M222.173,173.728c-0.547,11.999-2.552,18.515-4.238,22.851
			c-2.232,5.744-4.899,9.844-9.206,14.15c-4.307,4.306-8.406,6.974-14.15,9.206c-4.337,1.685-10.853,3.69-22.852,4.237
			c-12.975,0.592-16.867,0.717-49.729,0.717s-36.754-0.125-49.729-0.717c-11.999-0.547-18.515-2.552-22.852-4.237
			c-5.744-2.232-9.844-4.899-14.15-9.206c-4.306-4.306-6.974-8.406-9.206-14.15c-1.685-4.336-3.69-10.853-4.237-22.851
			c-0.592-12.977-0.717-16.869-0.717-49.729c0-32.86,0.125-36.752,0.717-49.729c0.547-11.999,2.552-18.515,4.237-22.851
			c2.232-5.744,4.9-9.844,9.206-14.15c4.306-4.306,8.406-6.973,14.15-9.206c4.337-1.685,10.853-3.69,22.851-4.237
			C85.248,23.235,89.14,23.109,122,23.109s36.752,0.125,49.729,0.717c11.999,0.547,18.515,2.552,22.852,4.237
			c5.744,2.232,9.844,4.899,14.15,9.206c4.306,4.306,6.974,8.406,9.206,14.15c1.685,4.337,3.69,10.853,4.238,22.851
			c0.592,12.977,0.717,16.869,0.717,49.729C222.891,156.86,222.765,160.752,222.173,173.728z M122,60.94
			c-34.827,0-63.06,28.233-63.06,63.06c0,34.827,28.233,63.06,63.06,63.06s63.06-28.233,63.06-63.06
			C185.06,89.173,156.827,60.94,122,60.94z M122,165.071c-22.683,0-41.071-18.388-41.071-41.071
			c0-22.683,18.388-41.071,41.071-41.071s41.071,18.388,41.071,41.071C163.071,146.683,144.683,165.071,122,165.071z
			 M187.482,43.803c-8.127,0-14.715,6.588-14.715,14.715c0,8.127,6.588,14.715,14.715,14.715c8.127,0,14.715-6.588,14.715-14.715
			C202.197,50.391,195.609,43.803,187.482,43.803z"/>
	</g>
</g>
</svg>
