<?xml version="1.0" encoding="utf-8"?>
<!-- Generator: Adobe Illustrator 22.0.1, SVG Export Plug-In . SVG Version: 6.00 Build 0)  -->
<svg version="1.1" id="Background" xmlns="http://www.w3.org/2000/svg" xmlns:xlink="http://www.w3.org/1999/xlink" x="0px" y="0px"
	 viewBox="0 0 245 245.1" enable-background="new 0 0 245 245.1" xml:space="preserve">
<g>
	<g id="XMLID_1_">
		<path fill="#FFFFFF" d="M208.9,144.6l-0.1,64.2h-36.3v-56.9c0-13.6-0.2-31-18.9-31c-18.9,0-21.8,14.8-21.8,30v57.8H95.5V91.8h34.9
			v16h0.5c4.9-9.2,16.7-18.9,34.4-18.9C202.1,88.9,208.9,113.1,208.9,144.6z"/>
		<rect x="36.3" y="91.8" fill="#FFFFFF" width="36.3" height="117"/>
		<path fill="#FFFFFF" d="M54.5,33.7c11.6,0,21.1,9.4,21.1,21.1c-0.1,11.6-9.5,21.1-21.1,21.1s-21.1-9.4-21.1-21.1
			C33.4,43.2,42.8,33.7,54.5,33.7z"/>
		<path fill="#0077B5" d="M72.6,208.8v-117H36.3v117H72.6z M245,17.7v209.7c0,9.8-8.1,17.7-18.1,17.7H18.1c-10,0-18.1-7.9-18.1-17.7
			V17.7C0,7.9,8.1,0,18.1,0h208.8C236.9,0,245,7.9,245,17.7z M208.8,208.8l0.1-64.2c0-31.5-6.8-55.7-43.6-55.7
			c-17.7,0-29.5,9.7-34.4,18.9h-0.5v-16H95.5v116.9h36.3v-57.8c0-15.2,2.9-30,21.8-30c18.7,0,18.9,17.4,18.9,31v56.9H208.8z
			 M75.6,54.8c0-11.7-9.5-21.1-21.1-21.1c-11.7,0-21.1,9.5-21.1,21.1c0,11.7,9.5,21.1,21.1,21.1S75.5,66.4,75.6,54.8z"/>
	</g>
</g>
</svg>
