<?xml version="1.0" encoding="utf-8"?>
<!-- Generator: Adobe Illustrator 22.0.1, SVG Export Plug-In . SVG Version: 6.00 Build 0)  -->
<svg version="1.1" id="Background" xmlns="http://www.w3.org/2000/svg" xmlns:xlink="http://www.w3.org/1999/xlink" x="0px" y="0px"
	 viewBox="0 0 245 245" enable-background="new 0 0 245 245" xml:space="preserve">
<g>
	<circle fill="#FFFFFF" cx="122.5" cy="122.5" r="122.5"/>
	<g>
		<path fill="#BD081C" d="M122.5,0C54.8,0,0,54.8,0,122.5c0,51.9,32.3,96.3,77.9,114.1c-1.1-9.7-2-24.6,0.4-35.2
			c2.2-9.6,14.4-60.9,14.4-60.9s-3.7-7.3-3.7-18.2c0-17,9.9-29.8,22.2-29.8c10.5,0,15.5,7.8,15.5,17.3c0,10.5-6.7,26.2-10.1,40.8
			c-2.9,12.2,6.1,22.1,18.1,22.1c21.8,0,38.5-23,38.5-56.1c0-29.3-21.1-49.8-51.2-49.8c-34.9,0-55.3,26.1-55.3,53.2
			c0,10.5,4.1,21.8,9.1,28c1,1.2,1.1,2.3,0.8,3.5c-0.9,3.9-3,12.2-3.4,13.9c-0.5,2.2-1.8,2.7-4.1,1.6c-15.3-7.1-24.9-29.5-24.9-47.5
			c0-38.6,28.1-74.1,80.9-74.1c42.5,0,75.5,30.3,75.5,70.7c0,42.2-26.6,76.2-63.6,76.2c-12.4,0-24.1-6.4-28.1-14.1
			c0,0-6.1,23.4-7.6,29.1c-2.8,10.6-10.2,24-15.2,32.1c11.5,3.5,23.6,5.5,36.3,5.5c67.7,0,122.5-54.8,122.5-122.5
			C245,54.8,190.1,0,122.5,0z"/>
	</g>
</g>
</svg>
