<?xml version="1.0" encoding="utf-8"?>
<!-- Generator: Adobe Illustrator 22.0.1, SVG Export Plug-In . SVG Version: 6.00 Build 0)  -->
<svg version="1.1" id="Background" xmlns="http://www.w3.org/2000/svg" xmlns:xlink="http://www.w3.org/1999/xlink" x="0px" y="0px"
	 viewBox="0 0 245 172.8" enable-background="new 0 0 245 172.8" xml:space="preserve">
<g id="XMLID_184_">
	<path id="XMLID_182_" fill="#FF0000" d="M239.9,27c-2.8-10.6-11.1-19-21.7-21.8C199.1,0,122.5,0,122.5,0S45.9,0,26.8,5.2
		C16.3,8,8,16.4,5.1,27C0,46.2,0,86.4,0,86.4s0,40.1,5.1,59.4c2.8,10.6,11.1,19,21.7,21.8c19.1,5.2,95.7,5.2,95.7,5.2
		s76.6,0,95.7-5.2c10.5-2.8,18.8-11.2,21.7-21.8c5.1-19.2,5.1-59.4,5.1-59.4S245,46.3,239.9,27z"/>
	<polygon id="XMLID_1355_" fill="#FFFFFF" points="97.4,122.8 161.5,86.4 97.4,50 	"/>
</g>
</svg>
