<?xml version="1.0" encoding="utf-8"?>
<!-- Generator: Adobe Illustrator 22.1.0, SVG Export Plug-In . SVG Version: 6.00 Build 0)  -->
<svg version="1.1" id="Background" xmlns="http://www.w3.org/2000/svg" xmlns:xlink="http://www.w3.org/1999/xlink" x="0px" y="0px"
	 viewBox="0 0 245 245.1" enable-background="new 0 0 245 245.1" xml:space="preserve">
<g>
	<path id="Blue_1_" d="M231.5,245c7.5,0,13.5-6.1,13.5-13.5v-218C245,6,238.9,0,231.5,0h-218C6,0,0,6.1,0,13.5v218
		C0,239,6.1,245,13.5,245H231.5L231.5,245z"/>
	<path id="f" fill="#FFFFFF" d="M169,245v-94.9h31.8l4.8-37H169V89.5c0-10.7,3-18,18.3-18h19.6v-33c-3.4-0.4-15-1.5-28.5-1.5
		c-28.2,0-47.6,17.2-47.6,48.9v27.3H98.9v37h31.9v94.9L169,245L169,245z"/>
</g>
</svg>
