<?xml version="1.0" encoding="utf-8"?>
<!-- Generator: Adobe Illustrator 22.1.0, SVG Export Plug-In . SVG Version: 6.00 Build 0)  -->
<svg version="1.1" id="Background" xmlns="http://www.w3.org/2000/svg" xmlns:xlink="http://www.w3.org/1999/xlink" x="0px" y="0px"
	 viewBox="0 0 246 246" enable-background="new 0 0 246 246" xml:space="preserve">
<g>
	<g>
		<path d="M245.1,72.3c-0.6-13.1-2.7-22-5.7-29.8c-3.1-8.1-7.3-14.9-14.2-21.8c-6.8-6.8-13.7-11-21.8-14.2c-7.8-3-16.7-5.1-29.8-5.7
			s-17.3-0.7-50.7-0.7S85.3,0.2,72.2,0.8s-22,2.7-29.8,5.7c-8.1,3.1-14.9,7.3-21.8,14.2c-6.8,6.8-11,13.7-14.2,21.8
			c-3,7.8-5.1,16.7-5.7,29.8C0.1,85.4,0,89.6,0,123s0.1,37.6,0.7,50.7c0.6,13.1,2.7,22,5.7,29.8c3.1,8.1,7.3,14.9,14.2,21.8
			c6.8,6.8,13.7,11,21.8,14.2c7.8,3,16.7,5.1,29.8,5.7s17.3,0.7,50.7,0.7s37.6-0.1,50.7-0.7c13.1-0.6,22-2.7,29.8-5.7
			c8.1-3.1,14.9-7.3,21.8-14.2c6.8-6.8,11-13.7,14.2-21.8c3-7.8,5.1-16.7,5.7-29.8s0.7-17.3,0.7-50.7
			C245.9,89.6,245.7,85.4,245.1,72.3z M223.2,172.7c-0.5,12-2.6,18.5-4.2,22.9c-2.2,5.7-4.9,9.8-9.2,14.2c-4.3,4.3-8.4,7-14.2,9.2
			c-4.3,1.7-10.9,3.7-22.9,4.2c-13,0.6-16.9,0.7-49.7,0.7s-36.8-0.1-49.7-0.7c-12-0.5-18.5-2.6-22.9-4.2c-5.7-2.2-9.8-4.9-14.2-9.2
			c-4.3-4.3-7-8.4-9.2-14.2c-1.7-4.3-3.7-10.9-4.2-22.9c-0.6-13-0.7-16.9-0.7-49.7c0-32.9,0.1-36.8,0.7-49.7
			c0.5-12,2.6-18.5,4.2-22.9c2.2-5.7,4.9-9.8,9.2-14.2c4.3-4.3,8.4-7,14.2-9.2c4.3-1.7,10.9-3.7,22.9-4.2c13-0.6,16.9-0.7,49.7-0.7
			s36.8,0.1,49.7,0.7c12,0.5,18.5,2.6,22.9,4.2c5.7,2.2,9.8,4.9,14.1,9.2s7,8.4,9.2,14.2c1.7,4.3,3.7,10.9,4.2,22.9
			c0.6,13,0.7,16.9,0.7,49.7C223.9,155.9,223.8,159.8,223.2,172.7z M123,59.9c-34.8,0-63.1,28.2-63.1,63.1s28.2,63.1,63.1,63.1
			s63.1-28.2,63.1-63.1S157.8,59.9,123,59.9z M123,164.1c-22.7,0-41.1-18.4-41.1-41.1s18.4-41.1,41.1-41.1s41.1,18.4,41.1,41.1
			S145.7,164.1,123,164.1z M188.5,42.8c-8.1,0-14.7,6.6-14.7,14.7s6.6,14.7,14.7,14.7c8.1,0,14.7-6.6,14.7-14.7
			S196.6,42.8,188.5,42.8z"/>
	</g>
</g>
</svg>
