<?xml version="1.0" encoding="utf-8"?>
<!-- Generator: Adobe Illustrator 22.1.0, SVG Export Plug-In . SVG Version: 6.00 Build 0)  -->
<svg version="1.1" id="Background" xmlns="http://www.w3.org/2000/svg" xmlns:xlink="http://www.w3.org/1999/xlink" x="0px" y="0px"
	 viewBox="0 0 245 245.1" enable-background="new 0 0 245 245.1" xml:space="preserve">
<g>
	<g>
		<path d="M226.9,0H18.1C8.1,0,0,7.9,0,17.7v209.7c0,9.8,8.1,17.7,18.1,17.7h208.8c10,0,18.1-7.9,18.1-17.7V17.7
			C245,7.9,236.9,0,226.9,0z M72.7,208.8H36.3v-117h36.3v117H72.7z M54.5,75.9c-11.6,0-21.1-9.4-21.1-21.1
			c0-11.6,9.4-21.1,21.1-21.1c11.6,0,21.1,9.4,21.1,21.1C75.5,66.4,66.1,75.9,54.5,75.9z M208.8,208.8h-36.3v-56.9
			c0-13.6-0.2-31-18.9-31c-18.9,0-21.8,14.8-21.8,30v57.8H95.5V91.8h34.9v16h0.5c4.9-9.2,16.7-18.9,34.4-18.9
			c36.8,0,43.6,24.2,43.6,55.7L208.8,208.8L208.8,208.8z"/>
	</g>
</g>
</svg>
