<?xml version="1.0" encoding="utf-8"?>
<!-- Generator: Adobe Illustrator 22.1.0, SVG Export Plug-In . SVG Version: 6.00 Build 0)  -->
<svg version="1.1" id="Background" xmlns="http://www.w3.org/2000/svg" xmlns:xlink="http://www.w3.org/1999/xlink" x="0px" y="0px"
	 viewBox="0 0 244.9 199.024" enable-background="new 0 0 244.9 199.024" xml:space="preserve">
<path d="M76.9,199.024c92.5,0,143-76.6,143-143c0-2.2,0-4.3-0.1-6.5c9.8-7.1,18.3-15.9,25.1-26c-9.2,4.1-18.9,6.7-28.9,7.9
	c10.5-6.3,18.3-16.2,22.1-27.8c-9.9,5.9-20.7,10-31.9,12.2c-19-20.2-50.9-21.2-71.1-2.2c-13.1,12.3-18.6,30.6-14.5,48
	c-40.4-2-78.1-21.1-103.6-52.5c-13.3,23-6.5,52.4,15.6,67.1c-8-0.2-15.8-2.4-22.8-6.3c0,0.2,0,0.4,0,0.6c0,23.9,16.9,44.5,40.3,49.3
	c-7.4,2-15.2,2.3-22.7,0.9c6.6,20.5,25.5,34.5,47,34.9c-17.8,14-39.8,21.6-62.4,21.6c-4,0-8-0.3-12-0.7
	C22.9,191.224,49.6,199.024,76.9,199.024"/>
</svg>
